<?xml version="1.0" encoding="UTF-8"?>
<svg id="Layer_1" data-name="Layer 1" xmlns="http://www.w3.org/2000/svg" viewBox="0 0 2000 2000">
  <path d="m1166.8,1700H341.02c-22.65,0-41.02-18.36-41.02-41.02V341.02c0-22.65,18.36-41.02,41.02-41.02h825.78c22.65,0,41.02,18.36,41.02,41.02v494.92c0,22.65-18.36,41.02-41.02,41.02s-41.02-18.36-41.02-41.02v-453.91H382.03v1235.94h784.77c22.65,0,41.02,18.36,41.02,41.02s-18.36,41.02-41.02,41.02Z"/>
  <path d="m1658.98,1700h-656.25c-22.65,0-41.02-18.36-41.02-41.02v-823.05c0-22.65,18.36-41.02,41.02-41.02h656.25c22.65,0,41.02,18.36,41.02,41.02v823.05c0,22.65-18.36,41.02-41.02,41.02Zm-615.23-82.03h574.22v-741.02h-574.22v741.02Z"/>
  <path d="m1658.98,1041.02h-656.25c-22.65,0-41.02-18.36-41.02-41.02s18.36-41.02,41.02-41.02h656.25c22.65,0,41.02,18.36,41.02,41.02s-18.36,41.02-41.02,41.02Z"/>
  <path d="m1494.91,1205.07c-1.31,0-2.68-.05-4.02-.19-1.34-.14-2.68-.33-3.99-.6-1.29-.27-2.6-.6-3.89-.98-1.28-.38-2.54-.85-3.77-1.37-1.23-.49-2.46-1.07-3.64-1.7-1.17-.63-2.35-1.31-3.44-2.05-1.12-.77-2.21-1.56-3.25-2.41-1.04-.85-2.05-1.75-2.98-2.71-.96-.93-1.86-1.94-2.71-2.98-.85-1.04-1.67-2.13-2.41-3.25-.74-1.09-1.42-2.27-2.05-3.45-.63-1.17-1.2-2.41-1.73-3.64-.49-1.23-.96-2.49-1.34-3.77-.38-1.28-.74-2.6-.99-3.88-.27-1.34-.46-2.65-.6-3.99-.14-1.34-.22-2.71-.22-4.05s.08-2.68.22-4.02c.14-1.34.33-2.68.6-3.99.25-1.28.6-2.6.99-3.88.38-1.29.85-2.54,1.34-3.77.52-1.23,1.09-2.46,1.73-3.64.63-1.18,1.31-2.35,2.05-3.45.74-1.12,1.56-2.21,2.41-3.25.85-1.04,1.75-2.05,2.71-2.98.93-.96,1.94-1.86,2.98-2.71,1.04-.85,2.13-1.67,3.25-2.41,1.09-.74,2.27-1.42,3.44-2.05,1.18-.63,2.41-1.2,3.64-1.72,1.23-.49,2.49-.96,3.77-1.34,1.29-.38,2.6-.74,3.89-.99,1.31-.27,2.65-.46,3.99-.6,2.68-.27,5.39-.27,8.06,0,1.31.14,2.65.33,3.97.6,1.31.25,2.62.6,3.91.99,1.26.38,2.54.85,3.78,1.34,1.23.52,2.46,1.09,3.64,1.72,1.17.63,2.32,1.31,3.44,2.05s2.21,1.56,3.23,2.41c1.04.85,2.05,1.75,3.01,2.71.96.93,1.86,1.94,2.71,2.98.85,1.04,1.64,2.13,2.38,3.25.74,1.09,1.45,2.27,2.08,3.45.63,1.18,1.2,2.41,1.7,3.64.52,1.23.99,2.49,1.37,3.77.38,1.29.71,2.6.99,3.88.27,1.31.46,2.65.6,3.99.14,1.34.19,2.71.19,4.02s-.06,2.71-.19,4.05c-.14,1.34-.33,2.65-.6,3.99-.28,1.29-.6,2.6-.99,3.88-.38,1.29-.85,2.54-1.37,3.77-.49,1.23-1.07,2.46-1.7,3.64-.63,1.18-1.34,2.35-2.08,3.45-.74,1.12-1.53,2.22-2.38,3.25-.85,1.04-1.75,2.05-2.71,2.98-.96.96-1.97,1.86-3.01,2.71-1.01.85-2.1,1.64-3.23,2.41-1.12.74-2.27,1.42-3.44,2.05-1.18.63-2.41,1.2-3.64,1.7-1.23.52-2.52.98-3.78,1.37-1.28.38-2.6.71-3.91.98-1.31.27-2.65.46-3.97.6-1.34.14-2.71.19-4.05.19Z"/>
  <path d="m1494.91,1533.22c-1.31,0-2.68-.08-4.02-.22-1.34-.14-2.68-.33-3.99-.6-1.29-.25-2.6-.6-3.89-.98-1.28-.38-2.54-.85-3.77-1.37-1.23-.49-2.46-1.07-3.64-1.7-1.17-.63-2.35-1.31-3.44-2.05-1.12-.77-2.21-1.56-3.25-2.41-1.04-.85-2.05-1.75-2.98-2.71-.96-.96-1.86-1.97-2.71-3.01-.85-1.01-1.67-2.11-2.41-3.23-.74-1.12-1.42-2.27-2.05-3.45-.63-1.17-1.2-2.41-1.73-3.64-.49-1.23-.96-2.49-1.34-3.77-.38-1.28-.74-2.6-.99-3.88-.27-1.31-.46-2.65-.6-3.99-.14-1.34-.22-2.71-.22-4.02s.08-2.71.22-4.05c.14-1.34.33-2.68.6-3.99.25-1.28.6-2.6.99-3.88.38-1.29.85-2.54,1.34-3.77.52-1.23,1.09-2.46,1.73-3.64.63-1.18,1.31-2.35,2.05-3.45.74-1.12,1.56-2.21,2.41-3.25.85-1.04,1.75-2.05,2.71-2.98.93-.96,1.94-1.86,2.98-2.71,1.04-.85,2.13-1.67,3.25-2.41,1.09-.74,2.27-1.42,3.44-2.05,1.18-.63,2.41-1.2,3.64-1.72,1.23-.49,2.49-.96,3.77-1.34,1.29-.38,2.6-.74,3.89-.99,1.31-.27,2.65-.46,3.99-.6,2.68-.27,5.39-.27,8.06,0,1.31.14,2.65.33,3.97.6,1.31.25,2.62.6,3.91.99,1.26.38,2.54.85,3.78,1.34,1.23.52,2.46,1.09,3.64,1.72,1.17.63,2.32,1.31,3.44,2.05s2.21,1.56,3.23,2.41c1.04.85,2.05,1.75,3.01,2.71.96.93,1.86,1.94,2.71,2.98.85,1.04,1.64,2.13,2.38,3.25.74,1.09,1.45,2.27,2.08,3.45.63,1.18,1.2,2.41,1.7,3.64.52,1.23.99,2.49,1.37,3.77.38,1.29.71,2.6.99,3.88.27,1.31.46,2.65.6,3.99.14,1.34.19,2.71.19,4.05s-.06,2.68-.19,4.02c-.14,1.34-.33,2.68-.6,3.99-.28,1.29-.6,2.6-.99,3.88-.38,1.29-.85,2.54-1.37,3.77-.49,1.23-1.07,2.46-1.7,3.64-.63,1.18-1.34,2.32-2.08,3.45-.74,1.12-1.53,2.22-2.38,3.23-.85,1.04-1.75,2.05-2.71,3.01-.96.96-1.97,1.86-3.01,2.71-1.01.85-2.1,1.64-3.23,2.41-1.12.74-2.27,1.42-3.44,2.05-1.18.63-2.41,1.2-3.64,1.7-1.23.52-2.52.98-3.78,1.37-1.28.38-2.6.74-3.91.98-1.31.27-2.65.46-3.97.6-1.34.14-2.71.22-4.05.22Z"/>
  <path d="m1330.85,1205.07c-1.34,0-2.68-.05-4.02-.19-1.34-.14-2.68-.33-3.99-.6-1.31-.27-2.63-.6-3.89-.98-1.28-.38-2.54-.85-3.77-1.37-1.26-.49-2.46-1.07-3.64-1.7-1.17-.63-2.35-1.31-3.44-2.05-1.12-.77-2.21-1.56-3.25-2.41-1.04-.85-2.05-1.75-2.98-2.71-.96-.96-1.86-1.94-2.71-2.98-.85-1.04-1.67-2.13-2.41-3.25-.74-1.12-1.42-2.27-2.05-3.45-.63-1.17-1.2-2.41-1.73-3.64-.49-1.23-.96-2.49-1.34-3.77-.41-1.28-.74-2.6-.99-3.88-.27-1.31-.46-2.65-.6-3.99-.14-1.34-.22-2.71-.22-4.02s.08-2.71.22-4.05c.14-1.34.33-2.68.6-3.99.25-1.28.57-2.6.99-3.88.38-1.29.85-2.54,1.34-3.77.52-1.23,1.09-2.46,1.73-3.64.63-1.18,1.31-2.35,2.05-3.45.74-1.12,1.56-2.21,2.41-3.25.85-1.04,1.75-2.05,2.71-2.98.93-.96,1.94-1.86,2.98-2.71,1.04-.85,2.13-1.67,3.25-2.41,1.09-.74,2.27-1.42,3.44-2.05,1.18-.63,2.38-1.2,3.64-1.72,1.23-.49,2.49-.96,3.77-1.34,1.26-.41,2.57-.74,3.89-.99,1.31-.27,2.65-.46,3.99-.6,2.68-.27,5.39-.27,8.06,0,1.31.14,2.65.33,3.97.6,1.31.25,2.62.57,3.91.99,1.26.38,2.54.85,3.78,1.34,1.23.52,2.46,1.09,3.64,1.72,1.17.63,2.32,1.31,3.44,2.05s2.21,1.56,3.23,2.41c1.07.85,2.05,1.75,3.01,2.71.96.93,1.86,1.94,2.71,2.98.85,1.04,1.64,2.13,2.41,3.25.71,1.09,1.42,2.27,2.05,3.45.63,1.18,1.2,2.41,1.7,3.64.52,1.23.99,2.49,1.37,3.77.38,1.29.71,2.6.99,3.88.27,1.31.46,2.65.6,3.99.14,1.34.22,2.71.22,4.05s-.08,2.68-.22,4.02c-.14,1.34-.33,2.68-.6,3.99-.28,1.29-.6,2.6-.99,3.88-.38,1.29-.85,2.54-1.37,3.77-.49,1.23-1.07,2.46-1.7,3.64-.63,1.18-1.34,2.32-2.05,3.45-.76,1.12-1.56,2.22-2.41,3.25-.85,1.04-1.75,2.02-2.71,2.98-.96.96-1.94,1.86-3.01,2.71-1.01.85-2.1,1.64-3.23,2.41-1.12.74-2.27,1.42-3.44,2.05-1.18.63-2.41,1.2-3.64,1.7-1.23.52-2.52.98-3.78,1.37-1.28.38-2.6.71-3.91.98-1.31.27-2.65.46-3.97.6-1.34.14-2.71.19-4.05.19Z"/>
  <path d="m1494.91,1369.13c-1.31,0-2.68-.05-4.02-.19-1.34-.14-2.68-.33-3.99-.6-1.29-.27-2.6-.6-3.89-.98-1.28-.38-2.54-.85-3.77-1.34-1.23-.52-2.46-1.09-3.64-1.72-1.17-.63-2.35-1.31-3.44-2.05-1.12-.77-2.21-1.56-3.25-2.41-1.04-.85-2.05-1.75-2.98-2.71-.96-.93-1.86-1.94-2.71-2.98-.85-1.04-1.67-2.13-2.41-3.25-.74-1.09-1.42-2.27-2.05-3.45-.63-1.17-1.2-2.41-1.73-3.64-.49-1.23-.96-2.49-1.34-3.77-.38-1.28-.74-2.6-.99-3.88-.27-1.31-.46-2.65-.6-3.99-.14-1.34-.22-2.71-.22-4.05s.08-2.68.22-4.02c.14-1.34.33-2.68.6-3.99.25-1.28.6-2.6.99-3.88.38-1.29.85-2.54,1.34-3.77.52-1.23,1.09-2.46,1.73-3.64.63-1.18,1.31-2.35,2.05-3.45.74-1.12,1.56-2.21,2.41-3.25.85-1.04,1.75-2.05,2.71-2.98.93-.96,1.94-1.86,2.98-2.71,1.04-.85,2.13-1.67,3.25-2.41,1.09-.74,2.27-1.42,3.44-2.05,1.18-.63,2.41-1.2,3.64-1.72,1.23-.49,2.49-.96,3.77-1.34,1.29-.38,2.6-.74,3.89-.99,1.31-.27,2.65-.46,3.99-.6,2.68-.27,5.39-.27,8.06,0,1.31.14,2.65.33,3.97.6,1.31.25,2.62.6,3.91.99,1.26.38,2.54.85,3.78,1.34,1.23.52,2.46,1.09,3.64,1.72,1.17.63,2.32,1.31,3.44,2.05s2.21,1.56,3.23,2.41c1.04.85,2.05,1.75,3.01,2.71.96.93,1.86,1.94,2.71,2.98.85,1.04,1.64,2.13,2.38,3.25.74,1.09,1.45,2.27,2.08,3.45.63,1.18,1.2,2.41,1.7,3.64.52,1.23.99,2.49,1.37,3.77.38,1.29.71,2.6.99,3.88.27,1.31.46,2.65.6,3.99.14,1.34.19,2.71.19,4.02s-.06,2.71-.19,4.05c-.14,1.34-.33,2.68-.6,3.99-.28,1.29-.6,2.6-.99,3.88-.38,1.29-.85,2.54-1.37,3.77-.49,1.23-1.07,2.46-1.7,3.64-.63,1.18-1.34,2.35-2.08,3.45-.74,1.12-1.53,2.22-2.38,3.25-.85,1.04-1.75,2.05-2.71,2.98-.96.96-1.97,1.86-3.01,2.71-1.01.85-2.1,1.64-3.23,2.41-1.12.74-2.27,1.42-3.44,2.05-1.18.63-2.41,1.2-3.64,1.72-1.23.49-2.52.96-3.78,1.34-1.28.38-2.6.71-3.91.98-1.31.27-2.65.46-3.97.6-1.34.14-2.71.19-4.05.19Z"/>
  <path d="m1330.85,1369.13c-1.34,0-2.68-.05-4.02-.19-1.34-.14-2.68-.33-3.99-.6-1.31-.27-2.63-.6-3.89-.98-1.28-.38-2.54-.85-3.77-1.37-1.26-.49-2.46-1.07-3.64-1.7-1.17-.63-2.35-1.31-3.44-2.05-1.12-.77-2.21-1.56-3.25-2.41-1.04-.85-2.05-1.75-2.98-2.71-.96-.96-1.86-1.94-2.71-2.98-.85-1.04-1.67-2.13-2.41-3.25-.74-1.09-1.42-2.27-2.05-3.45-.63-1.17-1.2-2.41-1.73-3.64-.49-1.23-.96-2.49-1.34-3.77-.41-1.28-.74-2.6-.99-3.88-.27-1.31-.46-2.65-.6-3.99-.14-1.34-.22-2.68-.22-4.02s.08-2.71.22-4.05c.14-1.34.33-2.68.6-3.99.25-1.28.57-2.6.99-3.88.38-1.29.85-2.54,1.34-3.77.52-1.23,1.09-2.46,1.73-3.64.63-1.18,1.31-2.35,2.05-3.45.74-1.12,1.56-2.21,2.41-3.25.85-1.04,1.75-2.05,2.71-2.98.93-.96,1.94-1.86,2.98-2.71,1.04-.85,2.13-1.67,3.25-2.41,1.09-.74,2.27-1.42,3.44-2.05,1.18-.63,2.38-1.2,3.64-1.72,1.23-.49,2.49-.96,3.77-1.34,1.26-.38,2.57-.74,3.89-.99,1.31-.27,2.65-.46,3.99-.6,2.68-.27,5.39-.27,8.06,0,1.31.14,2.65.33,3.97.6,1.31.25,2.62.6,3.91.99,1.26.38,2.54.85,3.78,1.34,1.23.52,2.46,1.09,3.64,1.72,1.17.63,2.32,1.31,3.44,2.05s2.21,1.56,3.23,2.41c1.07.85,2.05,1.75,3.01,2.71.96.93,1.86,1.94,2.71,2.98.85,1.04,1.64,2.13,2.41,3.25.71,1.09,1.42,2.27,2.05,3.45.63,1.18,1.2,2.41,1.7,3.64.52,1.23.99,2.49,1.37,3.77.38,1.29.71,2.6.99,3.88.27,1.31.46,2.65.6,3.99.14,1.34.22,2.71.22,4.05s-.08,2.68-.22,4.02c-.14,1.34-.33,2.68-.6,3.99-.28,1.29-.6,2.6-.99,3.88-.38,1.29-.85,2.54-1.37,3.77-.49,1.23-1.07,2.46-1.7,3.64-.63,1.18-1.34,2.35-2.05,3.45-.76,1.12-1.56,2.22-2.41,3.25-.85,1.04-1.75,2.02-2.71,2.98-.96.96-1.94,1.86-3.01,2.71-1.01.85-2.1,1.64-3.23,2.41-1.12.74-2.27,1.42-3.44,2.05-1.18.63-2.41,1.2-3.64,1.7-1.23.52-2.52.98-3.78,1.37-1.28.38-2.6.71-3.91.98-1.31.27-2.65.46-3.97.6-1.34.14-2.71.19-4.05.19Z"/>
  <path d="m1330.85,1533.22c-1.34,0-2.68-.08-4.02-.22-1.34-.14-2.68-.33-3.99-.6-1.31-.25-2.63-.6-3.89-.98-1.28-.38-2.54-.85-3.77-1.34-1.26-.52-2.46-1.09-3.64-1.72-1.17-.63-2.35-1.31-3.44-2.05-1.12-.77-2.21-1.56-3.25-2.41-1.04-.85-2.05-1.75-2.98-2.71-.96-.93-1.86-1.94-2.71-2.98-.85-1.04-1.67-2.13-2.41-3.25-.74-1.09-1.42-2.27-2.05-3.45-.63-1.17-1.2-2.41-1.73-3.64-.49-1.23-.96-2.49-1.34-3.77-.41-1.28-.74-2.6-.99-3.88-.27-1.34-.46-2.68-.6-3.99-.14-1.34-.22-2.71-.22-4.05s.08-2.68.22-4.02c.14-1.34.33-2.68.6-3.99.25-1.28.57-2.6.99-3.88.38-1.29.85-2.54,1.34-3.77.52-1.23,1.09-2.46,1.73-3.64.63-1.18,1.31-2.35,2.05-3.45.74-1.12,1.56-2.21,2.41-3.25.85-1.04,1.75-2.05,2.71-2.98.93-.96,1.94-1.86,2.98-2.71,1.04-.85,2.13-1.67,3.25-2.41,1.09-.74,2.27-1.42,3.44-2.05,1.18-.63,2.38-1.2,3.64-1.72,1.23-.49,2.49-.96,3.77-1.34,1.26-.38,2.57-.74,3.89-.99,1.31-.27,2.65-.46,3.99-.6,2.68-.27,5.39-.27,8.06,0,1.31.14,2.65.33,3.97.6,1.31.25,2.62.6,3.91.99,1.26.38,2.54.85,3.78,1.34,1.23.52,2.46,1.09,3.64,1.72,1.17.63,2.32,1.31,3.44,2.05s2.21,1.56,3.23,2.41c1.07.85,2.05,1.75,3.01,2.71.96.93,1.86,1.94,2.71,2.98.85,1.04,1.64,2.13,2.41,3.25.71,1.09,1.42,2.27,2.05,3.45.63,1.18,1.2,2.41,1.7,3.64.52,1.23.99,2.49,1.37,3.77.38,1.29.71,2.6.99,3.88.27,1.31.46,2.65.6,3.99.14,1.34.22,2.68.22,4.02s-.08,2.71-.22,4.05c-.14,1.31-.33,2.65-.6,3.99-.28,1.29-.6,2.6-.99,3.88-.38,1.29-.85,2.54-1.37,3.77-.49,1.23-1.07,2.46-1.7,3.64-.63,1.18-1.34,2.35-2.05,3.45-.76,1.12-1.56,2.22-2.41,3.25-.85,1.04-1.75,2.05-2.71,2.98-.96.96-1.94,1.86-3.01,2.71-1.01.85-2.1,1.64-3.23,2.41-1.12.74-2.27,1.42-3.44,2.05-1.18.63-2.41,1.2-3.64,1.72-1.23.49-2.52.96-3.78,1.34-1.28.38-2.6.74-3.91.98-1.31.27-2.65.46-3.97.6-1.34.14-2.71.22-4.05.22Z"/>
  <path d="m1166.79,1205.07c-1.31,0-2.68-.05-4.02-.19-1.34-.14-2.68-.33-3.99-.6-1.29-.27-2.6-.6-3.89-.98-1.28-.38-2.54-.85-3.77-1.37-1.23-.49-2.46-1.07-3.64-1.7-1.17-.63-2.35-1.31-3.44-2.05-1.12-.77-2.21-1.56-3.25-2.41-1.04-.85-2.05-1.75-2.98-2.71-.96-.93-1.86-1.94-2.71-2.98-.85-1.04-1.67-2.13-2.41-3.25-.74-1.09-1.42-2.27-2.05-3.45-.63-1.17-1.2-2.41-1.73-3.64-.49-1.23-.96-2.49-1.34-3.77-.38-1.28-.74-2.6-.99-3.91-.27-1.31-.46-2.65-.6-3.96-.14-1.34-.19-2.71-.19-4.05s.06-2.68.19-4.02c.14-1.34.33-2.68.6-3.99.25-1.28.6-2.6.99-3.88.38-1.29.85-2.54,1.34-3.77.52-1.23,1.09-2.46,1.73-3.64.63-1.18,1.31-2.35,2.05-3.45.74-1.12,1.56-2.21,2.41-3.25.85-1.04,1.75-2.05,2.71-2.98.93-.96,1.94-1.86,2.98-2.71,1.04-.85,2.13-1.67,3.25-2.41,1.09-.74,2.27-1.42,3.44-2.05,1.18-.63,2.41-1.2,3.64-1.72,1.23-.49,2.49-.96,3.77-1.34,1.29-.38,2.6-.74,3.89-.99,1.31-.27,2.65-.46,3.99-.6,2.68-.27,5.39-.27,8.06,0,1.31.14,2.65.33,3.97.6,1.31.25,2.62.6,3.91.99,1.26.38,2.54.85,3.78,1.34,1.23.52,2.46,1.09,3.64,1.72,1.17.63,2.32,1.31,3.44,2.05s2.21,1.56,3.23,2.41c1.04.85,2.05,1.75,3.01,2.71.96.93,1.86,1.94,2.71,2.98.85,1.04,1.64,2.13,2.41,3.25.71,1.09,1.42,2.27,2.05,3.45.63,1.18,1.2,2.41,1.7,3.64.52,1.23.99,2.49,1.37,3.77.38,1.29.71,2.6.99,3.88.27,1.31.46,2.65.6,3.99.14,1.34.19,2.68.19,4.02s-.06,2.71-.19,4.05c-.14,1.31-.33,2.65-.6,3.96-.28,1.31-.6,2.63-.99,3.91-.38,1.29-.85,2.54-1.37,3.77-.49,1.23-1.07,2.46-1.7,3.64-.63,1.18-1.34,2.35-2.05,3.45-.76,1.12-1.56,2.22-2.41,3.25-.85,1.04-1.75,2.05-2.71,2.98-.96.96-1.97,1.86-3.01,2.71-1.01.85-2.1,1.64-3.23,2.41-1.12.74-2.27,1.42-3.44,2.05-1.18.63-2.41,1.2-3.64,1.7-1.23.52-2.52.98-3.78,1.37-1.28.38-2.6.71-3.91.98-1.31.27-2.65.46-3.97.6-1.34.14-2.71.19-4.05.19Z"/>
  <path d="m1166.79,1369.13c-1.31,0-2.68-.05-4.02-.19-1.34-.14-2.68-.33-3.99-.6-1.29-.27-2.6-.6-3.89-.98-1.28-.38-2.54-.85-3.77-1.37-1.23-.49-2.46-1.07-3.64-1.7-1.17-.63-2.35-1.31-3.44-2.05-1.12-.77-2.21-1.56-3.25-2.41-1.04-.85-2.05-1.75-2.98-2.71-.96-.93-1.86-1.94-2.71-2.98-.85-1.04-1.67-2.13-2.41-3.25-.74-1.09-1.42-2.27-2.05-3.45-.63-1.17-1.2-2.41-1.73-3.64-.49-1.23-.96-2.49-1.34-3.77-.38-1.28-.74-2.6-.99-3.88-.27-1.34-.46-2.65-.6-3.99-.14-1.34-.19-2.71-.19-4.05s.06-2.68.19-4.02c.14-1.34.33-2.68.6-3.99.25-1.28.6-2.6.99-3.88.38-1.29.85-2.54,1.34-3.77.52-1.23,1.09-2.46,1.73-3.64.63-1.18,1.31-2.35,2.05-3.45.74-1.12,1.56-2.21,2.41-3.25.85-1.04,1.75-2.05,2.71-2.98.93-.96,1.94-1.86,2.98-2.71,1.04-.85,2.13-1.67,3.25-2.41,1.09-.74,2.27-1.42,3.44-2.05,1.18-.63,2.41-1.2,3.64-1.72,1.23-.49,2.49-.96,3.77-1.34,1.29-.38,2.6-.74,3.89-.99,1.31-.27,2.65-.46,3.99-.6,2.68-.27,5.39-.27,8.06,0,1.31.14,2.65.33,3.97.6,1.31.25,2.62.6,3.91.99,1.26.38,2.54.85,3.78,1.34,1.23.52,2.46,1.09,3.64,1.72,1.17.63,2.32,1.31,3.44,2.05s2.21,1.56,3.23,2.41c1.04.85,2.05,1.75,3.01,2.71.96.93,1.86,1.94,2.71,2.98.85,1.04,1.64,2.13,2.41,3.25.71,1.09,1.42,2.27,2.05,3.45.63,1.18,1.2,2.41,1.7,3.64.52,1.23.99,2.49,1.37,3.77.38,1.29.71,2.6.99,3.88.27,1.31.46,2.65.6,3.99.14,1.34.19,2.68.19,4.02s-.06,2.71-.19,4.05c-.14,1.34-.33,2.65-.6,3.99-.28,1.29-.6,2.6-.99,3.88-.38,1.29-.85,2.54-1.37,3.77-.49,1.23-1.07,2.46-1.7,3.64-.63,1.18-1.34,2.35-2.05,3.45-.76,1.12-1.56,2.22-2.41,3.25-.85,1.04-1.75,2.05-2.71,2.98-.96.96-1.97,1.86-3.01,2.71-1.01.85-2.1,1.64-3.23,2.41-1.12.74-2.27,1.42-3.44,2.05-1.18.63-2.41,1.2-3.64,1.7-1.23.52-2.52.98-3.78,1.37-1.28.38-2.6.71-3.91.98-1.31.27-2.65.46-3.97.6-1.34.14-2.71.19-4.05.19Z"/>
  <path d="m1166.79,1533.19c-1.31,0-2.68-.05-4.02-.19-1.34-.14-2.68-.33-3.99-.6-1.29-.27-2.6-.6-3.89-.98-1.28-.38-2.54-.85-3.77-1.37-1.23-.49-2.46-1.07-3.64-1.7-1.17-.63-2.35-1.31-3.44-2.05-1.12-.77-2.21-1.56-3.25-2.41-1.04-.85-2.05-1.75-2.98-2.71-.96-.93-1.86-1.94-2.71-2.98-.85-1.04-1.67-2.13-2.41-3.25-.74-1.09-1.42-2.27-2.05-3.45-.63-1.17-1.2-2.41-1.73-3.64-.49-1.23-.96-2.49-1.34-3.77-.38-1.28-.74-2.6-.99-3.88-.27-1.34-.46-2.65-.6-3.99-.14-1.34-.19-2.71-.19-4.05s.06-2.68.19-4.02c.14-1.34.33-2.68.6-3.99.25-1.28.6-2.6.99-3.88.38-1.29.85-2.54,1.34-3.77.52-1.23,1.09-2.46,1.73-3.64.63-1.18,1.31-2.35,2.05-3.45.74-1.12,1.56-2.21,2.41-3.25.85-1.04,1.75-2.05,2.71-2.98.93-.96,1.94-1.86,2.98-2.71,1.04-.85,2.13-1.67,3.25-2.41,1.09-.74,2.27-1.42,3.44-2.05,1.18-.63,2.41-1.2,3.64-1.72,1.23-.49,2.49-.96,3.77-1.34,1.29-.38,2.6-.74,3.89-.99,1.31-.27,2.65-.46,3.99-.6,2.68-.27,5.39-.27,8.06,0,1.31.14,2.65.33,3.97.6,1.31.25,2.62.6,3.91.99,1.26.38,2.54.85,3.78,1.34,1.23.52,2.46,1.09,3.64,1.72,1.17.63,2.32,1.31,3.44,2.05s2.21,1.56,3.23,2.41c1.04.85,2.05,1.75,3.01,2.71.96.93,1.86,1.94,2.71,2.98.85,1.04,1.64,2.13,2.41,3.25.71,1.09,1.42,2.27,2.05,3.45.63,1.18,1.2,2.41,1.7,3.64.52,1.23.99,2.49,1.37,3.77.38,1.29.71,2.6.99,3.88.27,1.31.46,2.65.6,3.99.14,1.34.19,2.68.19,4.02s-.06,2.71-.19,4.05c-.14,1.34-.33,2.65-.6,3.99-.28,1.29-.6,2.6-.99,3.88-.38,1.29-.85,2.54-1.37,3.77-.49,1.23-1.07,2.46-1.7,3.64-.63,1.18-1.34,2.35-2.05,3.45-.76,1.12-1.56,2.22-2.41,3.25-.85,1.04-1.75,2.05-2.71,2.98-.96.96-1.97,1.86-3.01,2.71-1.01.85-2.1,1.64-3.23,2.41-1.12.74-2.27,1.42-3.44,2.05-1.18.63-2.41,1.2-3.64,1.7-1.23.52-2.52.98-3.78,1.37-1.28.38-2.6.71-3.91.98-1.31.27-2.65.46-3.97.6-1.34.14-2.71.19-4.05.19Z"/>
  <path d="m1002.73,1494.92h-166.8c-22.65,0-41.02-18.36-41.02-41.02s18.36-41.02,41.02-41.02h166.8c22.65,0,41.02,18.36,41.02,41.02s-18.36,41.02-41.02,41.02Z"/>
  <path d="m671.88,1494.92h-166.8c-22.65,0-41.02-18.36-41.02-41.02s18.36-41.02,41.02-41.02h166.8c22.65,0,41.02,18.36,41.02,41.02s-18.36,41.02-41.02,41.02Z"/>
  <path d="m1002.73,1330.86h-497.66c-22.65,0-41.02-18.36-41.02-41.02s18.36-41.02,41.02-41.02h497.66c22.65,0,41.02,18.36,41.02,41.02s-18.36,41.02-41.02,41.02Z"/>
  <path d="m1002.73,1166.8h-497.66c-22.65,0-41.02-18.36-41.02-41.02s18.36-41.02,41.02-41.02h497.66c22.65,0,41.02,18.36,41.02,41.02s-18.36,41.02-41.02,41.02Z"/>
  <path d="m761.32,914c-53.98,0-104.65-21.75-139.02-59.68-15.21-16.79-13.93-42.72,2.85-57.93,16.79-15.21,42.72-13.93,57.93,2.85,18.57,20.49,47.82,32.73,78.23,32.73s49.46-17.16,52.43-33.75c3.97-22.25-29.27-36.36-39.56-40.15-48.41-17.85-91.39-36.99-93.2-37.79-1.97-.88-3.88-1.92-5.69-3.1-33.54-21.87-50.82-60.22-45.1-100.08,6.09-42.43,37.08-76.99,80.89-90.19,86.21-25.97,157.13,32.52,160.11,35.02l-52.78,62.79.25.21c-.4-.33-40.68-32.5-83.91-19.48-18.87,5.69-22.62,18.19-23.35,23.3-.51,3.56-.77,12.06,6.68,18.23,11.22,4.91,46.56,20.14,84.49,34.13,79.84,29.45,99.83,87.26,91.92,131.53-10.49,58.73-66.5,101.36-133.18,101.36Z"/>
  <path d="m753.91,602.3c-22.65,0-41.02-18.36-41.02-41.02v-56.2c0-22.65,18.36-41.02,41.02-41.02s41.02,18.36,41.02,41.02v56.2c0,22.65-18.36,41.02-41.02,41.02Z"/>
  <path d="m753.91,971.44c-22.65,0-41.02-18.36-41.02-41.02v-56.2c0-22.65,18.36-41.02,41.02-41.02s41.02,18.36,41.02,41.02v56.2c0,22.65-18.36,41.02-41.02,41.02Z"/>
</svg>