<?xml version="1.0" encoding="UTF-8"?>
<svg id="Layer_1" data-name="Layer 1" xmlns="http://www.w3.org/2000/svg" viewBox="0 0 2000 2000">
  <path d="m1695.99,1161.2v-.8s0-.09,0-.13c0-.58-.02-1.16-.04-1.75,0-.17-.02-.33-.03-.5-.03-.47-.06-.93-.11-1.4-.03-.3-.06-.59-.09-.88-.04-.33-.08-.65-.12-.98-.06-.43-.13-.86-.2-1.29-.03-.2-.07-.39-.1-.59-.1-.54-.21-1.08-.34-1.61-.01-.06-.02-.12-.04-.19l-165.84-706.87c-4.33-18.43-20.77-31.47-39.7-31.47h-176.72v-67.97c0-22.52-18.26-40.78-40.78-40.78h-543.74c-22.52,0-40.78,18.26-40.78,40.78v67.97h-176.72c-18.93,0-35.38,13.03-39.7,31.47l-165.64,705.99s0,0,0,0l-.2.87s-.02.1-.03.15c-.13.56-.25,1.12-.35,1.68-.03.17-.06.35-.09.52-.08.45-.15.9-.21,1.36-.04.3-.08.61-.12.91-.04.31-.07.63-.1.95-.04.45-.07.89-.1,1.34-.01.19-.02.37-.03.56-.03.56-.04,1.13-.04,1.69,0,.06,0,.11,0,.16v494.81c0,22.52,18.26,40.78,40.78,40.78h1310.42c22.52,0,40.78-18.26,40.78-40.78v-493.9s0-.07,0-.11Zm-238.94-666.88l146.7,625.3h-127.3v-231.09c0-22.52-18.26-40.78-40.78-40.78h-40.78v-231.09c0-22.52-18.26-40.78-40.78-40.78h-41.46v-81.56h144.4Zm-212.36,625.3c-17.55,0-33.14,11.23-38.69,27.89l-45.08,135.24h-321.83l-45.08-135.24c-5.55-16.65-21.14-27.89-38.69-27.89h-148.85v-190.31h788.43v190.31h-150.21Zm-556.66-462.18h625.3v190.31h-625.3v-190.31Zm80.88-271.87h462.18v190.31h-462.18v-190.31Zm-225.96,108.75h144.4v81.56h-40.1c-22.52,0-40.78,18.26-40.78,40.78v231.09h-40.78c-22.52,0-40.78,18.26-40.78,40.78v231.09h-128.66l146.71-625.3Zm1071.48,1120.11H385.57v-413.25h340.35l45.08,135.24c5.55,16.65,21.13,27.89,38.69,27.89h380.62c17.55,0,33.14-11.23,38.69-27.89l45.08-135.24h340.35v413.25Z"/>
  <path d="m1190.99,1445.87h-380.62c-22.52,0-40.78,18.26-40.78,40.78s18.26,40.78,40.78,40.78h380.62c22.52,0,40.78-18.26,40.78-40.78s-18.26-40.78-40.78-40.78Z"/>
</svg>