<?xml version="1.0" encoding="UTF-8"?>
<svg id="Layer_1" data-name="Layer 1" xmlns="http://www.w3.org/2000/svg" viewBox="0 0 2000 2000">
  <path d="m886.69,974.34c93.39,0,174.25-33.5,240.33-99.58,66.06-66.07,99.57-146.92,99.57-240.32s-33.5-174.23-99.58-240.32c-66.09-66.06-146.94-99.56-240.32-99.56s-174.25,33.5-240.32,99.57c-66.07,66.07-99.58,146.93-99.58,240.31s33.51,174.26,99.58,240.33c66.1,66.06,146.95,99.57,240.32,99.57Zm-181.84-521.74c50.7-50.7,110.18-75.35,181.84-75.35s131.14,24.64,181.85,75.35c50.7,50.71,75.36,110.2,75.36,181.84s-24.66,131.14-75.36,181.85c-50.71,50.71-110.2,75.36-181.85,75.36s-131.12-24.66-181.84-75.36c-50.71-50.7-75.37-110.19-75.37-181.85s24.66-131.13,75.37-181.84Z"/>
  <path d="m1481.43,1379.71c-1.91-27.5-5.76-57.49-11.43-89.17-5.73-31.91-13.1-62.08-21.93-89.65-9.13-28.5-21.52-56.64-36.87-83.61-15.9-27.99-34.59-52.37-55.57-72.43-21.93-20.98-48.78-37.86-79.83-50.16-30.94-12.24-65.24-18.44-101.92-18.44-14.41,0-28.34,5.91-55.24,23.43-16.56,10.8-35.93,23.29-57.55,37.1-18.49,11.78-43.53,22.81-74.46,32.81-30.18,9.77-60.82,14.72-91.08,14.72s-60.87-4.95-91.08-14.72c-30.9-9.98-55.95-21.02-74.41-32.8-21.41-13.68-40.79-26.17-57.6-37.12-26.88-17.52-40.82-23.43-55.22-23.43-36.69,0-70.97,6.21-101.91,18.46-31.03,12.28-57.89,29.16-79.85,50.16-20.97,20.07-39.66,44.43-55.56,72.42-15.32,26.97-27.72,55.1-36.85,83.62-8.82,27.57-16.19,57.73-21.92,89.64-5.68,31.63-9.53,61.64-11.43,89.2-1.87,26.95-2.82,55-2.82,83.33,0,73.67,23.42,133.3,69.6,177.28,45.61,43.4,105.94,65.41,179.34,65.41h679.51c73.37,0,133.71-22.01,179.33-65.41,46.19-43.95,69.61-103.61,69.61-177.29-.01-28.43-.97-56.48-2.85-83.36Zm-123.77,200.73c-30.14,28.68-70.14,42.63-122.32,42.63h-679.49c-52.19,0-92.19-13.94-122.32-42.61-29.55-28.13-43.92-66.54-43.92-117.38,0-26.44.87-52.55,2.62-77.62,1.7-24.59,5.18-51.6,10.34-80.31,5.09-28.35,11.57-54.95,19.28-79.04,7.4-23.09,17.49-45.96,30-67.99,11.94-20.99,25.68-39.01,40.84-53.52,14.18-13.58,32.05-24.69,53.11-33.02,19.48-7.71,41.37-11.93,65.13-12.56,2.9,1.54,8.05,4.48,16.41,9.93,17,11.08,36.6,23.72,58.26,37.55,24.42,15.57,55.88,29.63,93.47,41.76,38.43,12.42,77.62,18.73,116.52,18.73s78.1-6.31,116.51-18.72c37.62-12.16,69.07-26.21,93.52-41.8,22.17-14.17,41.21-26.44,58.22-37.53,8.35-5.44,13.51-8.39,16.41-9.93,23.77.64,45.66,4.86,65.15,12.56,21.05,8.33,38.92,19.46,53.1,33.02,15.16,14.5,28.9,32.52,40.84,53.53,12.52,22.02,22.62,44.9,30.01,67.97,7.72,24.12,14.21,50.71,19.29,79.04,5.15,28.76,8.63,55.78,10.34,80.33v.02c1.75,24.97,2.64,51.07,2.65,77.58-.01,50.85-14.37,89.24-43.93,117.37Z"/>
  <path d="m1405.82,511.06l-4.45,85.63c-1.07,21.08,20.07,36.07,39.5,28.32l78.72-31.28,78.72,31.28c19.46,7.72,40.58-7.22,39.5-28.32l-4.45-85.63,53.13-64.55c13.23-16.01,5.64-40.5-14.48-46.14l-82.1-23.08-46.22-70.09c-11.38-17.29-36.84-17.27-48.2,0l-46.22,70.09-82.1,23.08c-20.15,5.66-27.68,30.16-14.48,46.14l53.13,64.55Zm85.74-92.98l28.03-42.52,28.03,42.52c3.83,5.79,9.61,10.03,16.31,11.9l49.86,14.01-32.13,39.02c-4.58,5.56-6.91,12.63-6.55,19.85l2.7,51.86-47.55-18.9c-6.82-2.72-14.51-2.72-21.33,0l-47.55,18.9,2.7-51.86c.37-7.22-1.96-14.28-6.55-19.85l-32.13-39.02,49.86-14.01c6.7-1.87,12.47-6.1,16.31-11.9Z"/>
</svg>