<?xml version="1.0" encoding="UTF-8"?>
<svg id="Layer_2" data-name="Layer 2" xmlns="http://www.w3.org/2000/svg" viewBox="0 0 2000 2000">
  <path d="m1181.32,583.98l-104.43-15.51-46.7-96.77c-5.04-10.45-15.25-16.93-26.64-16.93s-21.6,6.49-26.64,16.93l-46.7,96.77-104.43,15.51c-11.27,1.67-20.46,9.6-23.98,20.67-3.52,11.08-.64,23.01,7.52,31.14l75.56,75.33-17.83,106.37c-1.92,11.48,2.6,22.86,11.82,29.71,5.11,3.79,11.14,5.8,17.46,5.8,4.79,0,9.57-1.21,13.82-3.49l93.4-50.21,93.4,50.21c4.25,2.28,9.02,3.49,13.82,3.49,6.32,0,12.35-2.01,17.46-5.8,9.21-6.85,13.74-18.23,11.82-29.71l-17.83-106.38,75.56-75.33c8.16-8.13,11.04-20.06,7.52-31.14-3.52-11.08-12.71-19-23.98-20.67Zm-120.29,121.67l10.3,61.46-53.95-29.01c-4.25-2.28-9.02-3.49-13.82-3.49s-9.58,1.21-13.82,3.49l-53.95,29.01,10.3-61.46c1.65-9.86-1.54-19.91-8.54-26.88l-43.64-43.51,60.32-8.96c9.68-1.44,18.04-7.65,22.37-16.62l26.97-55.89,26.97,55.89c4.33,8.97,12.69,15.18,22.37,16.62l60.32,8.96-43.64,43.51c-7,6.98-10.2,17.03-8.54,26.89Z"/>
  <path d="m1670.74,1632.25h-230.02V327.38c0-16.75-13.32-30.38-29.7-30.38h-780.7c-16.38,0-29.7,13.63-29.7,30.38v1304.87h-267.36c-16.68,0-30.26,13.63-30.26,30.38s13.57,30.38,30.26,30.38h1337.49c16.68,0,30.26-13.63,30.26-30.38s-13.57-30.38-30.26-30.38Zm-436.66-614.82c0,16.75,13.32,30.38,29.7,30.38h117.53v579.92h-721.3V357.75h721.3v629.29h-117.53c-16.38,0-29.7,13.63-29.7,30.38Z"/>
</svg>