<?xml version="1.0" encoding="UTF-8"?>
<svg id="Layer_2" data-name="Layer 2" xmlns="http://www.w3.org/2000/svg" viewBox="0 0 2000 2000">
  <path d="m1575.25,1414.32c25.39-30.73,40.66-70.11,40.66-112.99,0-97.97-79.7-177.67-177.67-177.67s-177.67,79.7-177.67,177.67c0,42.88,15.27,82.26,40.66,112.99-32.48,14.31-60.59,36.76-81.66,64.82-21.07-28.05-49.18-50.51-81.66-64.82,25.39-30.73,40.66-70.11,40.66-112.99,0-97.97-79.7-177.67-177.67-177.67s-177.67,79.7-177.67,177.67c0,42.88,15.27,82.26,40.66,112.99-32.48,14.31-60.59,36.76-81.66,64.82-21.07-28.05-49.18-50.51-81.66-64.82,25.39-30.73,40.66-70.11,40.66-112.99,0-97.97-79.7-177.67-177.67-177.67s-177.67,79.7-177.67,177.67c0,42.88,15.27,82.26,40.66,112.99-72.14,31.78-122.66,103.92-122.66,187.68v54.67c0,22.64,18.36,41,41,41h1312c22.64,0,41-18.36,41-41v-54.67c0-83.76-50.51-155.9-122.66-187.68Zm-137.01-208.66c52.75,0,95.67,42.92,95.67,95.67s-42.92,95.67-95.67,95.67-95.67-42.92-95.67-95.67,42.92-95.67,95.67-95.67Zm-437.33,0c52.75,0,95.67,42.92,95.67,95.67s-42.92,95.67-95.67,95.67-95.67-42.92-95.67-95.67,42.92-95.67,95.67-95.67Zm-437.33,0c52.75,0,95.67,42.92,95.67,95.67s-42.92,95.67-95.67,95.67-95.67-42.92-95.67-95.67,42.92-95.67,95.67-95.67Zm-177.67,396.33c0-67.82,55.18-123,123-123h109.33c67.82,0,123,55.18,123,123v13.67h-355.33v-13.67Zm437.33,0c0-67.82,55.18-123,123-123h109.33c67.82,0,123,55.18,123,123v13.67h-355.33v-13.67Zm792.67,13.67h-355.33v-13.67c0-67.82,55.18-123,123-123h109.33c67.82,0,123,55.18,123,123v13.67Z"/>
  <path d="m821.31,655.06l-20.87,121.66c-4.08,23.76,5.51,47.32,25.01,61.48,11.02,8.01,23.91,12.07,36.89,12.07,9.99,0,20.03-2.41,29.31-7.29l109.26-57.44,109.26,57.44c21.34,11.21,46.7,9.38,66.2-4.79,19.5-14.17,29.08-37.73,25.01-61.48l-20.87-121.66,88.39-86.16c17.26-16.82,23.36-41.51,15.91-64.44-7.45-22.93-26.89-39.32-50.74-42.78l-122.16-17.75-54.63-110.69c-10.67-21.62-32.27-35.04-56.37-35.04s-45.7,13.43-56.37,35.04l-54.63,110.69-122.15,17.75c-23.85,3.47-43.3,19.86-50.75,42.78-7.45,22.92-1.35,47.61,15.91,64.44l88.39,86.17Zm198.68,47.87c-5.97-3.14-12.53-4.71-19.08-4.71s-13.11,1.57-19.08,4.71l-94.01,49.43,17.96-104.69c2.28-13.3-2.13-26.87-11.79-36.29l-76.06-74.14,105.11-15.27c13.36-1.94,24.9-10.33,30.87-22.43l47.01-95.25,47.01,95.25c5.97,12.1,17.52,20.49,30.87,22.43l105.11,15.27-76.06,74.14c-9.66,9.42-14.07,22.99-11.79,36.29l17.96,104.69-94.01-49.43Z"/>
  <path d="m389.52,806.72l-15.42,89.91c-3.76,21.92,5.08,43.66,23.07,56.73,17.99,13.07,41.4,14.76,61.08,4.41l80.74-42.45,80.74,42.45c8.56,4.5,17.83,6.72,27.05,6.72,11.97,0,23.87-3.75,34.04-11.14,17.99-13.07,26.84-34.81,23.07-56.73l-15.42-89.9,65.32-63.67c15.92-15.52,21.55-38.3,14.68-59.46-6.87-21.15-24.81-36.28-46.82-39.48l-90.27-13.12-40.37-81.8c-9.84-19.95-29.77-32.33-52.01-32.33s-42.17,12.39-52.02,32.33l-40.37,81.8-90.27,13.12c-22.01,3.2-39.95,18.33-46.82,39.48-6.87,21.15-1.25,43.93,14.68,59.46l65.32,63.67Zm90.22-97.68c13.36-1.94,24.9-10.33,30.87-22.43l28.39-57.53,28.39,57.53c5.97,12.1,17.52,20.49,30.87,22.43l63.48,9.23-45.94,44.78c-9.66,9.42-14.07,22.99-11.79,36.29l10.84,63.22-56.78-29.85c-11.94-6.28-26.22-6.28-38.16,0l-56.78,29.85,10.84-63.22c2.28-13.3-2.13-26.87-11.79-36.29l-45.94-44.78,63.48-9.22Z"/>
  <path d="m1233.39,683.59c-6.87,21.15-1.25,43.93,14.68,59.46l65.32,63.67-15.42,89.91c-3.76,21.92,5.08,43.66,23.07,56.73,17.99,13.07,41.4,14.76,61.08,4.41l80.74-42.45,80.74,42.45c8.56,4.5,17.83,6.72,27.05,6.72,11.97,0,23.87-3.75,34.04-11.14,17.99-13.07,26.84-34.81,23.07-56.73l-15.42-89.9,65.32-63.67c15.92-15.52,21.55-38.3,14.68-59.46-6.87-21.15-24.81-36.28-46.82-39.48l-90.27-13.12-40.37-81.8c-9.84-19.95-29.77-32.33-52.01-32.33s-42.17,12.39-52.01,32.33l-40.37,81.8-90.27,13.12c-22.01,3.2-39.95,18.33-46.82,39.48h0Zm170.22,25.45c13.36-1.94,24.9-10.33,30.87-22.43l28.39-57.53,28.39,57.53c5.97,12.1,17.52,20.49,30.87,22.43l63.48,9.23-45.94,44.78c-9.66,9.42-14.07,22.99-11.79,36.29l10.84,63.22-56.78-29.85c-11.94-6.28-26.22-6.28-38.16,0l-56.78,29.85,10.84-63.22c2.28-13.3-2.13-26.87-11.79-36.29l-45.94-44.78,63.48-9.22Z"/>
</svg>