<?xml version="1.0" encoding="UTF-8"?>
<svg id="Layer_1" data-name="Layer 1" xmlns="http://www.w3.org/2000/svg" viewBox="0 0 2000 2000">
  <path d="m1492.19,464.06h-205.08v-41.02c0-67.85-55.2-123.05-123.05-123.05h-328.12c-67.85,0-123.05,55.2-123.05,123.05v41.02h-205.08c-67.85,0-123.05,55.2-123.05,123.05,0,54.49,35.62,100.79,84.78,116.92l73.16,883.13c5.27,63.27,59.13,112.83,122.62,112.83h669.35c63.49,0,117.35-49.56,122.63-112.85l73.15-883.12c49.16-16.13,84.78-62.43,84.78-116.92,0-67.85-55.2-123.05-123.05-123.05Zm-697.27-41.02c0-22.62,18.4-41.02,41.02-41.02h328.12c22.62,0,41.02,18.4,41.02,41.02v41.02h-410.16v-41.02Zm580.63,1157.31c-1.76,21.09-19.71,37.61-40.87,37.61h-669.35c-21.16,0-39.12-16.52-40.87-37.59l-72.09-870.22h895.27l-72.08,870.2Zm116.64-952.24H507.81c-22.62,0-41.02-18.4-41.02-41.02s18.4-41.02,41.02-41.02h984.38c22.62,0,41.02,18.4,41.02,41.02s-18.4,41.02-41.02,41.02Z"/>
  <path d="m835.86,1492.38l-41.02-661.72c-1.4-22.61-20.97-39.81-43.47-38.4-22.61,1.4-39.8,20.87-38.4,43.47l41.02,661.72c1.35,21.75,19.41,38.48,40.9,38.48,23.75,0,42.43-20,40.98-43.56Z"/>
  <path d="m1000,792.19c-22.65,0-41.02,18.36-41.02,41.02v661.72c0,22.65,18.36,41.02,41.02,41.02s41.02-18.36,41.02-41.02v-661.72c0-22.65-18.36-41.02-41.02-41.02Z"/>
  <path d="m1248.63,792.27c-22.56-1.4-42.07,15.79-43.47,38.4l-41.02,661.72c-1.4,22.61,15.79,42.07,38.4,43.47,22.62,1.4,42.07-15.8,43.47-38.4l41.02-661.72c1.4-22.61-15.79-42.07-38.4-43.47Z"/>
</svg>