<?xml version="1.0" encoding="UTF-8"?>
<svg id="Layer_1" data-name="Layer 1" xmlns="http://www.w3.org/2000/svg" viewBox="0 0 2000 2000">
  <path d="m1513.98,305.67c-16-16.01-41.95-16.01-57.94,0l-315.81,315.81H424.1c-67.78,0-122.93,55.15-122.93,122.93v573.66c0,67.79,55.15,122.93,122.93,122.93h43.71v210.35c0,16.66,10.08,31.66,25.5,37.95,15.64,6.38,33.28,2.44,44.76-9.28l233.8-239.01h477.22c67.78,0,122.93-55.14,122.93-122.93v-464.8l315.81-315.81c16-16.01,16-41.95,0-57.95l-173.85-173.84Zm-376.68,666.41l-115.9-115.9,347.7-347.69,115.9,115.9-347.7,347.69Zm-159.55-43.65l87.31,87.31-149.65,62.34,62.34-149.65Zm312.32,389.64c0,22.6-18.39,40.98-40.98,40.98h-494.45c-11.02,0-21.59,4.45-29.29,12.32l-175.59,179.5v-150.85c0-22.62-18.34-40.98-40.98-40.98h-84.68c-22.59,0-40.98-18.38-40.98-40.98v-573.66c0-22.6,18.39-40.98,40.98-40.98h634.17l-123.78,123.78c-3.41,3.41-6.8,8.12-9.05,13.69l-113.42,272.29h-221.27c-22.63,0-40.98,18.34-40.98,40.98s18.34,40.94,40.98,40.94h248.6c5.27,0,10.93-1.08,16.1-3.3l297.14-123.76c4.95-1.93,9.95-5.29,13.7-9.05l123.78-123.78v382.84Zm252.88-751.63l-115.9-115.9,57.95-57.94,115.9,115.9-57.95,57.94Z"/>
</svg>