<?xml version="1.0" encoding="UTF-8"?>
<svg id="Layer_1" data-name="Layer 1" xmlns="http://www.w3.org/2000/svg" viewBox="0 0 2000 2000">
  <g id="g1000">
    <g id="g1006">
      <g id="path1008">
        <path d="m1657.39,844.52H342.61c-22.6,0-40.92-18.32-40.92-40.92v-201.85c0-67.68,55.07-122.75,122.75-122.75h1151.12c67.68,0,122.75,55.07,122.75,122.75v201.85c0,22.6-18.32,40.92-40.92,40.92Zm-1273.87-81.83h1232.95v-160.94c0-22.56-18.35-40.92-40.92-40.92H424.44c-22.56,0-40.92,18.36-40.92,40.92v160.94Z"/>
      </g>
    </g>
    <g id="g1010">
      <g id="path1012">
        <path d="m563.56,669.94c-22.6,0-40.92-18.32-40.92-40.92v-218.22c0-22.6,18.32-40.92,40.92-40.92s40.92,18.32,40.92,40.92v218.22c0,22.6-18.32,40.92-40.92,40.92Z"/>
      </g>
    </g>
    <g id="g1014">
      <g id="path1016">
        <path d="m1000,669.94c-22.6,0-40.92-18.32-40.92-40.92v-218.22c0-22.6,18.32-40.92,40.92-40.92s40.92,18.32,40.92,40.92v218.22c0,22.6-18.32,40.92-40.92,40.92Z"/>
      </g>
    </g>
    <g id="g1018">
      <g id="path1020">
        <path d="m1436.44,669.94c-22.6,0-40.92-18.32-40.92-40.92v-218.22c0-22.6,18.32-40.92,40.92-40.92s40.92,18.32,40.92,40.92v218.22c0,22.6-18.32,40.92-40.92,40.92Z"/>
      </g>
    </g>
    <g id="g1022">
      <g id="path1024">
        <path d="m694.49,1062.74h-87.29c-22.6,0-40.92-18.32-40.92-40.92s18.32-40.92,40.92-40.92h87.29c22.6,0,40.92,18.32,40.92,40.92s-18.32,40.92-40.92,40.92Z"/>
      </g>
    </g>
    <g id="g1026">
      <g id="path1028">
        <path d="m694.49,1237.32h-87.29c-22.6,0-40.92-18.32-40.92-40.92s18.32-40.92,40.92-40.92h87.29c22.6,0,40.92,18.32,40.92,40.92s-18.32,40.92-40.92,40.92Z"/>
      </g>
    </g>
    <g id="g1030">
      <g id="path1032">
        <path d="m694.49,1411.89h-87.29c-22.6,0-40.92-18.32-40.92-40.92s18.32-40.92,40.92-40.92h87.29c22.6,0,40.92,18.32,40.92,40.92s-18.32,40.92-40.92,40.92Z"/>
      </g>
    </g>
    <g id="g1034">
      <g id="path1036">
        <path d="m1043.64,1062.74h-87.29c-22.6,0-40.92-18.32-40.92-40.92s18.32-40.92,40.92-40.92h87.29c22.6,0,40.92,18.32,40.92,40.92s-18.32,40.92-40.92,40.92Z"/>
      </g>
    </g>
    <g id="g1038">
      <g id="path1040">
        <path d="m1043.64,1237.32h-87.29c-22.6,0-40.92-18.32-40.92-40.92s18.32-40.92,40.92-40.92h87.29c22.6,0,40.92,18.32,40.92,40.92s-18.32,40.92-40.92,40.92Z"/>
      </g>
    </g>
    <g id="g1042">
      <g id="path1044">
        <path d="m1043.64,1411.89h-87.29c-22.6,0-40.92-18.32-40.92-40.92s18.32-40.92,40.92-40.92h87.29c22.6,0,40.92,18.32,40.92,40.92s-18.32,40.92-40.92,40.92Z"/>
      </g>
    </g>
    <g id="g1046">
      <g id="path1048">
        <path d="m1392.8,1062.74h-87.29c-22.6,0-40.92-18.32-40.92-40.92s18.32-40.92,40.92-40.92h87.29c22.6,0,40.92,18.32,40.92,40.92s-18.32,40.92-40.92,40.92Z"/>
      </g>
    </g>
    <g id="g1050">
      <g id="path1052">
        <path d="m1392.8,1237.32h-87.29c-22.6,0-40.92-18.32-40.92-40.92s18.32-40.92,40.92-40.92h87.29c22.6,0,40.92,18.32,40.92,40.92s-18.32,40.92-40.92,40.92Z"/>
      </g>
    </g>
    <g id="g1054">
      <g id="path1056">
        <path d="m1392.8,1411.89h-87.29c-22.6,0-40.92-18.32-40.92-40.92s18.32-40.92,40.92-40.92h87.29c22.6,0,40.92,18.32,40.92,40.92s-18.32,40.92-40.92,40.92Z"/>
      </g>
    </g>
    <g id="g1058">
      <g id="path1060">
        <path d="m1575.56,1630.11H424.44c-67.68,0-122.75-55.07-122.75-122.75v-905.62c0-67.68,55.07-122.75,122.75-122.75h1151.12c67.68,0,122.75,55.07,122.75,122.75v905.62c0,67.68-55.07,122.75-122.75,122.75ZM424.44,560.83c-22.56,0-40.92,18.36-40.92,40.92v905.62c0,22.56,18.35,40.92,40.92,40.92h1151.12c22.56,0,40.92-18.36,40.92-40.92v-905.62c0-22.56-18.35-40.92-40.92-40.92H424.44Z"/>
      </g>
    </g>
  </g>
</svg>