<?xml version="1.0" encoding="UTF-8"?>
<svg id="Layer_1" data-name="Layer 1" xmlns="http://www.w3.org/2000/svg" xmlns:xlink="http://www.w3.org/1999/xlink" viewBox="0 0 2000 2000">
  <defs>
    <style>
      .cls-1 {
        clip-path: url(#clippath);
      }

      .cls-2 {
        fill: none;
      }
    </style>
    <clipPath id="clippath">
      <rect class="cls-2" x="298.8" y="287.83" width="1399.52" height="1399.52"/>
    </clipPath>
  </defs>
  <g id="g1101">
    <g id="g1103">
      <g class="cls-1">
        <g id="g1105">
          <g id="g1111">
            <g id="path1113">
              <path d="m1438.65,588.51H339.81c-22.64,0-41-18.36-41-41v-109.34c0-82.9,67.44-150.34,150.34-150.34h880.17c82.9,0,150.34,67.44,150.34,150.34v109.34c0,22.64-18.36,41-41,41Zm-1057.84-82h1016.84v-68.34c0-37.68-30.66-68.34-68.34-68.34H449.14c-37.68,0-68.34,30.66-68.34,68.34v68.34Z"/>
            </g>
          </g>
          <g id="g1115">
            <g id="path1117">
              <path d="m1165.31,588.51c-22.64,0-41-18.36-41-41v-218.68c0-22.64,18.36-41,41-41s41,18.36,41,41v218.68c0,22.64-18.36,41-41,41Z"/>
            </g>
          </g>
          <g id="g1119">
            <g id="path1121">
              <path d="m1069.61,1520.62c-7.03,0-14.11-1.81-20.49-5.49-15.28-8.82-23.21-26.44-19.67-43.73l51.99-254.05c.88-4.32,2.46-8.46,4.66-12.28l382.68-662.82c16.43-28.45,42.95-48.81,74.69-57.31,31.73-8.5,64.88-4.14,93.34,12.29,28.45,16.43,48.81,42.95,57.31,74.69,8.5,31.74,4.14,64.88-12.29,93.34l-382.68,662.83c-2.2,3.82-5.01,7.25-8.31,10.18l-194.02,172.05c-7.69,6.82-17.41,10.32-27.21,10.32Zm90.83-280.31l-25.99,127.02,97.01-86.02,379.35-657.06c5.48-9.48,6.93-20.53,4.1-31.11-2.83-10.58-9.62-19.42-19.1-24.9-9.49-5.48-20.53-6.93-31.11-4.1-10.58,2.83-19.42,9.62-24.9,19.1l-379.36,657.06Z"/>
            </g>
          </g>
          <g id="g1123">
            <g id="path1125">
              <path d="m1263.61,1348.57c-6.96,0-14.01-1.77-20.46-5.5l-142.03-82c-19.61-11.32-26.33-36.4-15.01-56.01,11.32-19.61,36.4-26.33,56.01-15.01l142.03,82c19.61,11.32,26.33,36.4,15.01,56.01-7.59,13.15-21.38,20.51-35.55,20.51Z"/>
            </g>
          </g>
          <g id="g1127">
            <g id="path1129">
              <path d="m1605.29,756.77c-6.96,0-14.01-1.77-20.46-5.5l-142.03-82c-19.61-11.32-26.33-36.4-15.01-56.01,11.32-19.61,36.4-26.33,56.01-15.01l142.03,82c19.61,11.32,26.33,36.4,15.01,56.01-7.59,13.15-21.38,20.51-35.55,20.51Z"/>
            </g>
          </g>
          <g id="g1131">
            <g id="path1133">
              <path d="m1523.28,898.8c-6.96,0-14.01-1.77-20.46-5.5l-142.03-82c-19.61-11.32-26.33-36.4-15.01-56.01,11.32-19.61,36.4-26.33,56.01-15.01l142.03,82c19.61,11.32,26.33,36.4,15.01,56.01-7.59,13.15-21.38,20.51-35.55,20.51Z"/>
            </g>
          </g>
          <g id="path1135">
            <path d="m1025.9,1137.93H506.55c-22.64,0-41-18.36-41-41v-382.68c0-22.64,18.36-41,41-41h519.35c22.64,0,41,18.36,41,41v382.68c0,22.64-18.36,41-41,41Zm-478.35-82h437.35v-300.68h-437.35v300.68Z"/>
          </g>
          <g id="g1137">
            <g id="path1139">
              <path d="m834.56,1137.93c-10.49,0-20.99-4-28.99-12.01l-135.01-135.01-135.01,135.01c-16.01,16.01-41.97,16.01-57.98,0-16.01-16.01-16.01-41.97,0-57.98l164.01-164.01c16.01-16.01,41.97-16.01,57.98,0l164.01,164.01c16.01,16.01,16.01,41.97,0,57.98-8.01,8.01-18.5,12.01-28.99,12.01Z"/>
            </g>
          </g>
          <g id="g1141">
            <g id="path1143">
              <path d="m1069.62,1520.62H506.55c-22.64,0-41-18.36-41-41s18.36-41,41-41h563.08c22.64,0,41,18.36,41,41s-18.36,41-41,41Z"/>
            </g>
          </g>
          <g id="g1145">
            <g id="path1147">
              <path d="m1025.93,1137.94c-12.47,0-24.78-5.66-32.83-16.4l-131.2-174.94-72.63,96.84c-13.59,18.12-39.29,21.79-57.4,8.2-18.12-13.59-21.79-39.29-8.2-57.4l105.43-140.58c7.74-10.32,19.9-16.4,32.8-16.4,12.91,0,25.06,6.08,32.8,16.4l164.01,218.68c13.59,18.12,9.92,43.82-8.2,57.4-7.37,5.53-16.01,8.2-24.57,8.2Z"/>
            </g>
          </g>
          <g id="g1149">
            <g id="path1151">
              <path d="m1108.78,1329.28H506.55c-22.64,0-41-18.36-41-41s18.36-41,41-41h602.23c22.64,0,41,18.36,41,41s-18.36,41-41,41Z"/>
            </g>
          </g>
          <g id="g1153">
            <g id="path1155">
              <path d="m1329.31,1687.36H449.14c-82.9,0-150.34-67.44-150.34-150.34v-989.51c0-22.64,18.36-41,41-41h1098.84c22.64,0,41,18.36,41,41v128.92c0,22.64-18.36,41-41,41s-41-18.36-41-41v-87.92H380.81v948.51c0,37.68,30.66,68.34,68.34,68.34h880.17c37.68,0,68.34-30.66,68.34-68.34v-532.57c0-22.64,18.36-41,41-41s41,18.36,41,41v532.57c0,82.9-67.44,150.34-150.34,150.34Z"/>
            </g>
          </g>
        </g>
      </g>
    </g>
  </g>
</svg>