<?xml version="1.0" encoding="UTF-8"?>
<svg id="Layer_1" data-name="Layer 1" xmlns="http://www.w3.org/2000/svg" viewBox="0 0 2000 2000">
  <g id="g1087">
    <g id="g1093">
      <g id="path1095">
        <path d="m697.29,708.29h-247.68c-16.7,0-31.75-10.06-38.14-25.48-6.39-15.43-2.86-33.18,8.95-44.99l330.23-330.23c11.81-11.81,29.56-15.34,44.99-8.95,15.43,6.39,25.48,21.44,25.48,38.14v247.68c0,68.28-55.55,123.84-123.84,123.84Zm-148.02-82.56h148.02c22.76,0,41.28-18.52,41.28-41.28v-148.02l-189.3,189.3Z"/>
      </g>
    </g>
    <g id="path1097">
      <path d="m1550.39,1533.88H449.61c-22.8,0-41.28-18.48-41.28-41.28v-550.39c0-22.8,18.48-41.28,41.28-41.28h1100.78c22.8,0,41.28,18.48,41.28,41.28v550.39c0,22.8-18.48,41.28-41.28,41.28Zm-1059.5-82.56h1018.22v-467.83H490.89v467.83Z"/>
    </g>
    <g id="g1099">
      <g id="path1101">
        <path d="m1440.31,983.49c-22.8,0-41.28-18.48-41.28-41.28V419.34c0-22.76-18.52-41.28-41.28-41.28h-560.81l-306.05,306.05v258.1c0,22.8-18.48,41.28-41.28,41.28s-41.28-18.48-41.28-41.28v-275.19c0-10.95,4.35-21.45,12.09-29.19l330.23-330.23c7.74-7.74,18.24-12.09,29.19-12.09h577.91c68.28,0,123.84,55.55,123.84,123.84v522.87c0,22.8-18.48,41.28-41.28,41.28Z"/>
      </g>
    </g>
    <g id="g1103">
      <g id="path1105">
        <path d="m1357.75,1704.5h-825.59c-68.28,0-123.84-55.55-123.84-123.84v-88.06c0-22.8,18.48-41.28,41.28-41.28s41.28,18.48,41.28,41.28v88.06c0,22.76,18.52,41.28,41.28,41.28h825.59c22.76,0,41.28-18.52,41.28-41.28v-88.06c0-22.8,18.48-41.28,41.28-41.28s41.28,18.48,41.28,41.28v88.06c0,68.28-55.55,123.84-123.84,123.84Z"/>
      </g>
    </g>
    <g id="g1107">
      <g id="path1109">
        <path d="m752.33,1361.88c-79.67,0-144.48-64.81-144.48-144.48s64.81-144.48,144.48-144.48c28.95,0,56.89,8.54,80.8,24.69,15.74,10.64,19.88,32.02,9.25,47.76-10.64,15.74-32.02,19.88-47.76,9.25-12.5-8.44-27.12-12.9-42.29-12.9-41.73,0-75.68,33.95-75.68,75.68s33.95,75.68,75.68,75.68c15.11,0,27.74-4.42,37.53-13.15,1.91-1.7,3.75-3.6,5.46-5.64,12.21-14.55,33.91-16.46,48.46-4.24,14.55,12.21,16.45,33.91,4.24,48.46-3.85,4.58-8.02,8.89-12.41,12.79-22.45,20-51.25,30.57-83.29,30.57Z"/>
      </g>
    </g>
    <g id="g1111">
      <g id="path1113">
        <path d="m1011.1,1361.88c-39.58,0-76.77-15.99-102.04-43.86-12.76-14.08-11.69-35.83,2.39-48.59,14.08-12.76,35.83-11.69,48.59,2.39,12.06,13.31,31.15,21.26,51.06,21.26s30.15-11.49,31.54-19.25c1.63-9.12-11.52-17.43-24.37-22.17-34.28-12.64-64.74-26.2-66.01-26.77-1.66-.74-3.25-1.61-4.77-2.6-25.45-16.59-38.56-45.68-34.22-75.91,4.6-32.04,27.92-58.12,60.86-68.04,60.51-18.23,114.29,13.66,126.16,35.86,8.95,16.76,2.63,37.6-14.13,46.55-14.8,7.91-32.79,3.89-42.96-8.7-3.92-2.86-23.45-15.59-49.22-7.83-7.23,2.18-11.83,6.53-12.6,11.94-.31,2.17-.11,5.07,2.28,7.38,8.62,3.76,32.68,14.08,58.44,23.58,59.44,21.93,74.25,65.42,68.29,98.82-7.86,44.01-49.61,75.96-99.26,75.96Zm28.5-215.27s.01.02.01.03c0,0,0-.02-.01-.03Z"/>
      </g>
    </g>
    <g id="g1115">
      <g id="path1117">
        <path d="m1281.16,1361.88c-16.64,0-31.52-10.5-37.1-26.19-.03-.08-.06-.16-.08-.24l-75.27-216.85c-6.23-17.95,3.27-37.55,21.22-43.78,17.95-6.23,37.55,3.27,43.78,21.22l46.84,134.96,44.56-134.12c5.99-18.03,25.46-27.79,43.49-21.8,18.03,5.99,27.79,25.46,21.8,43.49l-71.88,216.38c-.03.08-.05.15-.08.23-5.39,15.85-20.26,26.58-37.01,26.69-.09,0-.18,0-.27,0Z"/>
      </g>
    </g>
  </g>
</svg>