<?xml version="1.0" encoding="UTF-8"?>
<svg id="Layer_1" data-name="Layer 1" xmlns="http://www.w3.org/2000/svg" viewBox="0 0 2000 2000">
  <g id="g2245">
    <g id="g2251">
      <g id="path2253">
        <path d="m1163.65,525.42h-327.29c-17.08,0-32.36-10.61-38.33-26.61-5.97-16-1.37-34.03,11.54-45.22l163.65-141.83c15.38-13.33,38.21-13.33,53.59,0l163.65,141.83c12.91,11.19,17.51,29.21,11.54,45.22-5.97,16-21.25,26.61-38.33,26.61Zm-217.62-81.82h107.95l-53.97-46.78-53.97,46.78Z"/>
      </g>
    </g>
    <g id="g2255">
      <g id="path2257">
        <path d="m1654.59,1698.22H345.41c-22.6,0-40.91-18.32-40.91-40.91v-763.68c0-12.14,5.39-23.66,14.72-31.43l218.2-181.83c17.36-14.46,43.16-12.12,57.62,5.24,14.46,17.36,12.12,43.15-5.24,57.62l-203.48,169.56v703.61h1227.35v-703.61l-203.47-169.56c-17.36-14.46-19.7-40.26-5.24-57.62,14.46-17.36,40.26-19.7,57.62-5.24l218.19,181.83c9.33,7.77,14.72,19.29,14.72,31.43v763.68c0,22.6-18.32,40.91-40.91,40.91Z"/>
      </g>
    </g>
    <g id="g2259">
      <g id="path2261">
        <path d="m345.41,1698.22c-6.12,0-12.26-1.37-17.97-4.16-14.04-6.86-22.94-21.13-22.94-36.75v-763.68c0-15.63,8.9-29.89,22.94-36.75,14.04-6.86,30.76-5.13,43.09,4.46l490.94,381.84c9.97,7.75,15.8,19.67,15.8,32.29s-5.83,24.54-15.8,32.29l-490.94,381.84c-7.32,5.69-16.19,8.62-25.12,8.62Zm40.92-720.95v596.39l383.39-298.19-383.39-298.19Z"/>
      </g>
    </g>
    <g id="g2263">
      <g id="path2265">
        <path d="m1654.59,1698.22c-8.94,0-17.8-2.92-25.12-8.62l-490.94-381.84c-9.97-7.75-15.8-19.67-15.8-32.29s5.83-24.54,15.8-32.29l490.94-381.84c12.33-9.59,29.05-11.32,43.09-4.46,14.04,6.86,22.94,21.13,22.94,36.75v763.68c0,15.63-8.9,29.89-22.94,36.75-5.71,2.79-11.85,4.16-17.97,4.16Zm-424.31-422.75l383.39,298.19v-596.39l-383.39,298.19Z"/>
      </g>
    </g>
    <g id="g2267">
      <g id="path2269">
        <path d="m1654.59,1698.22H345.41c-17.48,0-33.02-11.1-38.7-27.63-5.67-16.53-.22-34.84,13.58-45.57l490.94-381.84c7.18-5.59,16.02-8.62,25.12-8.62h327.29c9.1,0,17.94,3.03,25.12,8.62l490.94,381.84c13.8,10.73,19.25,29.04,13.58,45.57-5.67,16.53-21.22,27.63-38.7,27.63Zm-1189.93-81.82h1070.69l-385.74-300.02h-299.22l-385.74,300.02Z"/>
      </g>
    </g>
    <g id="g2271">
      <g id="path2273">
        <path d="m986.94,1050.83c-39.54,0-77.99-19.2-105.48-52.67-26.51-32.27-41.1-75.22-41.1-120.92s15.53-88.4,43.73-119.62c27.81-30.79,66.3-48.46,105.6-48.46s76.64,17.61,102.78,49.59c25.05,30.64,38.29,71.34,38.29,117.7,0,97.79-63.18,174.38-143.82,174.38Zm2.75-259.85c-33.18,0-67.51,32.26-67.51,86.26s33.48,91.77,64.76,91.77c34.19,0,62-41.52,62-92.56s-24.36-85.46-59.25-85.46Z"/>
      </g>
    </g>
    <g id="g2275">
      <g id="path2277">
        <path d="m994.61,1180.01c-.38,0-.77,0-1.15-.02-63.4-1.75-125.99-24.28-176.23-63.42-52.19-40.66-88.72-96.15-105.63-160.47-19.54-74.28-9.71-152.59,27.66-220.5,37.36-67.89,98.25-118.1,171.45-141.4,77.23-24.58,159.22-17.34,230.87,20.39,71.66,37.74,124.02,101.23,147.42,178.76.13.42.25.85.36,1.27,15.55,58.26,10.95,113.26-14.93,178.32-17.5,43.98-60.38,90.97-128.27,90.97-24.63,0-48.25-10.1-66.51-28.45-19.97-20.07-31.35-48.04-31.21-76.74l1.13-227.3c.11-22.52,18.41-40.71,40.91-40.71h.21c22.59.11,40.82,18.52,40.71,41.11l-1.13,227.29c-.03,6.98,2.73,13.94,7.39,18.62,1.61,1.62,4.86,4.34,8.51,4.34,33.01,0,47.53-27.55,52.25-39.39,19.11-48.05,22.73-85.87,12.07-126.34-17.11-56.1-55.09-102.02-107.02-129.37-52.11-27.44-111.75-32.71-167.93-14.82-110.73,35.25-174.33,150.83-144.8,263.13,24.53,93.26,108.82,160.24,204.99,162.9,22.59.62,40.39,19.44,39.76,42.03-.61,22.2-18.8,39.78-40.87,39.78Z"/>
      </g>
    </g>
    <g id="g2279">
      <g id="path2281">
        <path d="m1436.39,1104.25c-22.6,0-40.91-18.32-40.91-40.91v-537.92h-790.96v537.92c0,22.6-18.32,40.91-40.91,40.91s-40.91-18.32-40.91-40.91V484.51c0-22.6,18.32-40.91,40.91-40.91h872.78c22.6,0,40.91,18.32,40.91,40.91v578.83c0,22.6-18.32,40.91-40.91,40.91Z"/>
      </g>
    </g>
  </g>
</svg>