<?xml version="1.0" encoding="UTF-8"?>
<svg id="Layer_2" data-name="Layer 2" xmlns="http://www.w3.org/2000/svg" viewBox="0 0 2000 2000">
  <g id="g3283">
    <g id="g3289">
      <g id="path3291">
        <path d="m1001.47,1610.28c-63.06,0-122.34-24.56-166.93-69.15-44.59-44.59-69.14-103.87-69.14-166.93s24.56-122.34,69.14-166.93c44.59-44.59,103.87-69.15,166.93-69.15,54.2,0,107.14,18.83,149.07,53.01,8.44,6.88,9.71,19.31,2.82,27.75-6.88,8.44-19.31,9.71-27.75,2.82-34.91-28.46-79-44.14-124.14-44.14-108.42,0-196.63,88.21-196.63,196.63s88.21,196.63,196.63,196.63,196.63-88.21,196.63-196.63c0-29.24-6.26-57.36-18.59-83.59-4.64-9.86-.41-21.61,9.45-26.25,9.86-4.64,21.61-.41,26.25,9.45,14.83,31.52,22.35,65.29,22.35,100.38,0,63.06-24.56,122.34-69.14,166.93-44.59,44.59-103.87,69.15-166.93,69.15Z"/>
      </g>
    </g>
    <g id="g3293">
      <g id="path3295">
        <path d="m1001.47,1703c-87.83,0-170.39-34.2-232.49-96.3-62.1-62.1-96.3-144.67-96.3-232.5,0-50.95,11.34-99.79,33.71-145.18,4.82-9.77,16.64-13.79,26.41-8.97,9.77,4.82,13.79,16.64,8.97,26.41-19.67,39.91-29.64,82.89-29.64,127.74,0,159.55,129.8,289.35,289.35,289.35s289.35-129.8,289.35-289.35-129.8-289.35-289.35-289.35c-78.7,0-152.3,31.05-207.24,87.42-7.6,7.8-20.09,7.96-27.89.36-7.8-7.6-7.96-20.09-.36-27.89,30.3-31.1,65.8-55.54,105.51-72.64,41.12-17.71,84.85-26.7,129.98-26.7,87.83,0,170.4,34.2,232.5,96.3,62.1,62.1,96.3,144.67,96.3,232.5s-34.2,170.39-96.3,232.5c-62.1,62.1-144.67,96.3-232.5,96.3Z"/>
      </g>
    </g>
    <g id="g3297">
      <g id="path3299">
        <path d="m999.54,1490.08c-26.19,0-39.91-8.09-60-21.21-9.12-5.96-11.68-18.18-5.72-27.3,5.96-9.12,18.18-11.68,27.3-5.72,17.69,11.56,23.49,14.89,39.02,14.79,18.78-.12,29.88-15.35,32.24-29.44,1.21-7.19,1.88-24.66-17.93-31.65-4.2-1.48-8.27-2.84-12.19-4.16-19.75-6.61-36.8-12.31-49.55-26.68-13.07-14.73-18.66-34.81-14.95-53.71,3.71-18.94,16.07-34.46,34.8-43.69,33.28-16.39,67.91,2.59,78.44,11.28,8.4,6.94,9.59,19.37,2.65,27.77-6.92,8.39-19.32,9.58-27.72,2.69-.48-.36-19.88-14.26-35.93-6.35-7.65,3.77-12.2,9.11-13.53,15.89-1.33,6.8.87,14.44,5.75,19.94,5.75,6.48,16.99,10.24,32.56,15.45,4.08,1.37,8.3,2.78,12.81,4.37,31.82,11.24,49.39,41.53,43.7,75.38-2.74,16.31-10.67,31.48-22.34,42.7-13.23,12.73-30.02,19.53-48.54,19.65-.29,0-.58,0-.86,0Z"/>
      </g>
    </g>
    <g id="g3301">
      <g id="path3303">
        <path d="m1001.47,1522.09c-10.89,0-19.72-8.83-19.72-19.72v-32.01c0-10.89,8.83-19.72,19.72-19.72s19.72,8.83,19.72,19.72v32.01c0,10.89-8.83,19.72-19.72,19.72Z"/>
      </g>
    </g>
    <g id="g3305">
      <g id="path3307">
        <path d="m1001.47,1294.14c-10.89,0-19.72-8.83-19.72-19.72v-28.14c0-10.89,8.83-19.72,19.72-19.72s19.72,8.83,19.72,19.72v28.14c0,10.89-8.83,19.72-19.72,19.72Z"/>
      </g>
    </g>
    <g id="g3309">
      <g id="path3311">
        <path d="m492.24,869.23c-112.32,0-203.7-91.38-203.7-203.7s91.38-203.7,203.7-203.7,203.7,91.38,203.7,203.7-91.38,203.7-203.7,203.7Zm0-367.94c-90.57,0-164.25,73.68-164.25,164.25s73.68,164.25,164.25,164.25,164.25-73.68,164.25-164.25-73.68-164.25-164.25-164.25Z"/>
      </g>
    </g>
    <g id="g3313">
      <g id="path3315">
        <path d="m1507.76,866.29c-112.32,0-203.7-91.38-203.7-203.7,0-75.69,41.59-144.71,108.54-180.15,9.63-5.1,21.56-1.42,26.66,8.21,5.1,9.63,1.42,21.56-8.21,26.66-54,28.58-87.54,84.25-87.54,145.28,0,90.57,73.68,164.25,164.25,164.25s164.25-73.68,164.25-164.25-68.8-160.07-156.63-164.08c-10.88-.5-19.3-9.72-18.81-20.6.5-10.88,9.74-19.3,20.6-18.81,52.42,2.39,101.32,24.62,137.69,62.59,36.49,38.09,56.59,88.13,56.59,140.9,0,112.32-91.38,203.7-203.7,203.7Z"/>
      </g>
    </g>
    <g id="g3317">
      <g id="path3319">
        <path d="m1001.47,704.4c-112.32,0-203.7-91.38-203.7-203.7s91.38-203.7,203.7-203.7,203.7,91.38,203.7,203.7-91.38,203.7-203.7,203.7Zm0-367.95c-90.57,0-164.25,73.68-164.25,164.25s73.68,164.25,164.25,164.25,164.25-73.68,164.25-164.25-73.68-164.25-164.25-164.25Z"/>
      </g>
    </g>
    <g id="g3321">
      <g id="path3323">
        <path d="m1027.29,998.94h-51.64c-18.55,0-33.64-15.09-33.64-33.64v-26.83h-35.17c-10.64,0-20.23-5.9-25.04-15.39-4.81-9.49-3.89-20.71,2.4-29.29l90.14-122.88c6.31-8.61,16.45-13.74,27.13-13.74s20.81,5.14,27.13,13.74l90.14,122.88c6.3,8.58,7.22,19.8,2.41,29.29-4.81,9.49-14.41,15.39-25.05,15.39h-35.16v26.83c0,18.55-15.09,33.64-33.64,33.64Zm-45.83-39.45h40.03v-40.75c0-10.89,8.83-19.72,19.72-19.72h32.44l-72.18-98.39-72.18,98.39h32.44c10.89,0,19.72,8.83,19.72,19.72v40.75Zm105.45-42.39l.02.02s0,0,0,0l-.02-.02Z"/>
      </g>
    </g>
    <g id="g3325">
      <g id="path3327">
        <path d="m1259.22,1087.45c-6.66,0-13.39-1.97-19.25-6.07l-42.3-29.62c-7.36-5.16-12.28-12.87-13.84-21.72-1.56-8.85.42-17.78,5.57-25.14l15.39-21.98-28.8-20.17c-8.71-6.1-13.19-16.43-11.69-26.97,1.51-10.53,8.7-19.2,18.78-22.62l144.31-48.95c10.11-3.43,21.36-1.82,30.1,4.3,8.74,6.12,14.1,16.15,14.34,26.82l3.36,152.36h0c.23,10.64-5.45,20.36-14.83,25.38-9.38,5.02-20.63,4.34-29.34-1.77l-28.8-20.17-15.39,21.98c-6.54,9.33-17,14.33-27.61,14.33Zm-34.17-64.68l32.79,22.96,23.37-33.38c3-4.29,7.58-7.2,12.73-8.11,5.15-.91,10.45.27,14.74,3.27l26.58,18.61-2.69-122-115.56,39.2,26.57,18.61c8.92,6.25,11.09,18.55,4.84,27.47l-23.37,33.38Z"/>
      </g>
    </g>
    <g id="g3329">
      <g id="path3331">
        <path d="m743.57,1087.45c-10.61,0-21.07-5-27.61-14.33l-15.39-21.98-28.81,20.17c-8.71,6.1-19.95,6.78-29.33,1.76-9.39-5.02-15.07-14.74-14.84-25.38l3.36-152.36c.24-10.67,5.6-20.7,14.34-26.82,8.74-6.12,20-7.73,30.1-4.3l144.32,48.95s0,0,0,0c10.07,3.42,17.27,12.09,18.77,22.62,1.5,10.53-2.97,20.86-11.69,26.97l-28.81,20.17,15.39,21.98c5.15,7.36,7.13,16.29,5.57,25.14-1.56,8.85-6.47,16.56-13.83,21.72l-42.3,29.62c-5.86,4.1-12.59,6.07-19.25,6.07Zm-38.17-83.51c6.22,0,12.34,2.93,16.17,8.41l23.37,33.38,32.79-22.96-23.37-33.38c-3-4.29-4.18-9.59-3.27-14.74s3.83-9.73,8.11-12.73l26.58-18.61-115.56-39.2-2.69,122,26.58-18.61c3.44-2.41,7.39-3.57,11.3-3.57Z"/>
      </g>
    </g>
    <g id="g3333">
      <g id="path3335">
        <path d="m492.24,775.73c-60.76,0-110.19-49.43-110.19-110.19s49.43-110.19,110.19-110.19,110.19,49.43,110.19,110.19-49.43,110.19-110.19,110.19Zm0-180.94c-39.01,0-70.74,31.74-70.74,70.74s31.74,70.74,70.74,70.74,70.74-31.74,70.74-70.74-31.74-70.74-70.74-70.74Z"/>
      </g>
    </g>
    <g id="g3337">
      <g id="path3339">
        <path d="m1001.47,610.89c-25.14,0-49.73-8.69-69.25-24.47-8.47-6.85-9.79-19.27-2.94-27.74,6.85-8.47,19.27-9.79,27.74-2.94,12.7,10.27,28.07,15.7,44.45,15.7,39.01,0,70.74-31.74,70.74-70.74s-31.74-70.74-70.74-70.74c-33.45,0-62.6,23.74-69.3,56.44-2.19,10.67-12.61,17.55-23.28,15.36-10.67-2.19-17.55-12.61-15.36-23.28,10.45-50.97,55.85-87.97,107.95-87.97,60.76,0,110.19,49.43,110.19,110.19s-49.43,110.19-110.19,110.19Z"/>
      </g>
    </g>
    <g id="g3341">
      <g id="path3343">
        <path d="m1507.76,772.79c-60.76,0-110.19-49.43-110.19-110.19s49.43-110.19,110.19-110.19,110.19,49.43,110.19,110.19-49.43,110.19-110.19,110.19Zm0-180.94c-39.01,0-70.74,31.74-70.74,70.74s31.74,70.74,70.74,70.74,70.74-31.74,70.74-70.74-31.74-70.74-70.74-70.74Z"/>
      </g>
    </g>
  </g>
</svg>