<?xml version="1.0" encoding="UTF-8"?>
<svg id="Layer_1" data-name="Layer 1" xmlns="http://www.w3.org/2000/svg" viewBox="0 0 2000 2000">
  <g id="g1102">
    <g id="g1108">
      <g id="path1110">
        <path d="m1526.64,1699.27c-6.26,0-12.54-1.43-18.32-4.33l-508.31-254.15-508.32,254.15c-12.7,6.35-27.79,5.67-39.86-1.79-12.08-7.46-19.43-20.65-19.43-34.85V341.7c0-22.63,18.34-40.97,40.97-40.97h1053.28c22.63,0,40.97,18.34,40.97,40.97v1316.6c0,14.2-7.35,27.39-19.43,34.85-6.58,4.07-14.05,6.12-21.54,6.12ZM514.33,382.67v1209.33l467.34-233.67c11.54-5.77,25.11-5.77,36.65,0l467.34,233.67V382.67h-971.33Z"/>
      </g>
    </g>
  </g>
  <g id="g1112">
    <g id="path1114">
      <path d="m837.26,1114.63c-8.5,0-16.95-2.64-24.09-7.83-12.62-9.17-18.93-24.7-16.3-40.07l27.45-159.97-116.24-113.3c-11.17-10.89-15.19-27.17-10.37-42,4.82-14.83,17.64-25.64,33.08-27.89l160.64-23.34,71.83-145.56c6.9-13.99,21.14-22.84,36.74-22.84s29.84,8.85,36.74,22.84l71.84,145.56,160.63,23.34c15.43,2.24,28.26,13.05,33.08,27.89s.8,31.11-10.37,42l-116.23,113.3,27.44,159.98c2.64,15.37-3.68,30.91-16.3,40.07-12.62,9.17-29.34,10.38-43.15,3.12l-143.69-75.52-143.68,75.52c-5.99,3.15-12.54,4.71-19.06,4.71Zm162.73-167.49c6.55,0,13.1,1.57,19.06,4.7l89.27,46.92-17.05-99.39c-2.28-13.29,2.13-26.85,11.78-36.27l72.2-70.38-99.79-14.5c-13.35-1.94-24.88-10.32-30.85-22.41l-44.63-90.43-44.62,90.42c-5.97,12.09-17.5,20.48-30.85,22.42l-99.79,14.5,72.21,70.38c9.66,9.41,14.07,22.98,11.78,36.27l-17.05,99.38,89.25-46.92c5.97-3.14,12.52-4.71,19.06-4.71Z"/>
    </g>
  </g>
</svg>