<?xml version="1.0" encoding="UTF-8"?>
<svg id="Layer_1" data-name="Layer 1" xmlns="http://www.w3.org/2000/svg" viewBox="0 0 2000 2000">
  <path d="m1613.77,559.71h-479.74c-.66,0-1.25-.35-1.52-.92l-49.48-100.36c-13.96-28.41-43.44-46.75-75.12-46.75h-290.02c-46.17,0-83.73,37.57-83.73,83.75v82.09h-82.12c-46.16,0-83.72,37.56-83.72,83.73v82.09h-82.09c-46.17,0-83.73,37.56-83.73,83.73v677.53c0,46.17,37.56,83.73,83.73,83.73h895.9c46.17,0,83.73-37.56,83.73-83.73v-82.1h82.1c46.17,0,83.73-37.56,83.73-83.72v-82.09h82.09c46.17,0,83.73-37.56,83.73-83.73v-529.5c0-46.18-37.56-83.75-83.73-83.75Zm-331.65,946.56H386.23c-.92,0-1.67-.75-1.67-1.67v-677.53c0-.93.76-1.67,1.67-1.67h290.04c.28,0,.54.1.78.22.03.02.07.01.11.03.1.06.15.18.23.26.14.14.3.26.38.43l49.5,100.4c14.21,28.8,42.99,46.7,75.1,46.7h479.75c.22,0,.45.04.65.13.6.26,1.01.85,1.01,1.54,0,289.36.01,526.86.01,529.5,0,.93-.75,1.67-1.67,1.67Zm167.5-167.49c0,.92-.75,1.66-1.66,1.66h-82.11v-365.34c0-46.18-37.57-83.74-83.74-83.74h-479.74c-.62,0-1.21-.37-1.49-.94l-49.51-100.4c-14.2-28.77-42.97-46.69-75.09-46.69h-125.91v-82.09c0-.93.75-1.67,1.66-1.67h290.05c.64,0,1.21.35,1.5.95l49.51,100.4c14.22,28.8,42.99,46.69,75.09,46.69h479.78c.92,0,1.66.75,1.66,1.67v529.5Zm165.82-165.82c0,.93-.75,1.67-1.67,1.67h-82.09v-365.35c0-46.17-37.55-83.73-83.72-83.73h-479.78c-.63,0-1.21-.37-1.5-.95l-49.5-100.36c-14.19-28.82-42.97-46.72-75.1-46.72h-125.87v-82.09c0-.94.75-1.69,1.66-1.69h290.02c.63,0,1.21.35,1.5.94l49.51,100.43c14.21,28.78,42.99,46.67,75.12,46.67h479.74c.92,0,1.66.76,1.66,1.7v529.49h.01Z"/>
  <path d="m1031.61,1327.87c-22.66,0-41.03,18.37-41.03,41.03v23.72c0,22.66,18.37,41.03,41.03,41.03s41.03-18.37,41.03-41.03v-23.72c0-22.66-18.37-41.03-41.03-41.03Z"/>
  <path d="m1151.17,1327.87c-22.66,0-41.03,18.37-41.03,41.03v23.72c0,22.66,18.37,41.03,41.03,41.03s41.03-18.37,41.03-41.03v-23.72c0-22.66-18.37-41.03-41.03-41.03Z"/>
</svg>