<?xml version="1.0" encoding="UTF-8"?>
<svg id="Layer_1" data-name="Layer 1" xmlns="http://www.w3.org/2000/svg" viewBox="0 0 2000 2000">
  <g id="g4747">
    <g id="g4753">
      <g id="path4755">
        <path d="m1000,1700c-94.11,0-185.59-18.59-271.91-55.26-83.27-35.37-158.13-85.95-222.5-150.33-64.38-64.37-114.95-139.23-150.33-222.5-36.67-86.32-55.26-177.8-55.26-271.91,0-22.65,18.36-41.02,41.02-41.02s41.02,18.36,41.02,41.02c0,340.75,277.22,617.97,617.97,617.97s617.97-277.22,617.97-617.97-277.22-617.97-617.97-617.97c-186.87,0-362.27,85.5-481.21,234.59-14.13,17.71-39.94,20.61-57.64,6.48-17.71-14.13-20.61-39.93-6.48-57.64,64.13-80.38,146.27-147,237.52-192.64,96.62-48.32,200.19-72.83,307.81-72.83,94.11,0,185.59,18.59,271.91,55.26,83.27,35.37,158.13,85.95,222.5,150.33,64.38,64.38,114.95,139.24,150.33,222.5,36.67,86.32,55.26,177.8,55.26,271.91s-18.59,185.59-55.26,271.91c-35.38,83.27-85.95,158.13-150.33,222.5-64.38,64.38-139.23,114.95-222.5,150.33-86.32,36.67-177.8,55.26-271.91,55.26Z"/>
      </g>
    </g>
    <g id="g4757">
      <g id="path4759">
        <path d="m1000,1450.96c-115.53,0-231.07-43.98-319.03-131.93-175.91-175.91-175.91-462.14,0-638.05,175.91-175.91,462.14-175.91,638.06,0,175.91,175.91,175.91,462.14,0,638.05h0c-87.96,87.96-203.49,131.93-319.03,131.93Zm0-819.93c-94.54,0-189.05,35.97-261.02,107.95-143.92,143.93-143.92,378.12,0,522.04,143.92,143.92,378.12,143.9,522.04,0h0c143.93-143.93,143.93-378.11,0-522.04-71.95-71.96-166.5-107.95-261.02-107.95Zm290.03,658.99h.02-.02Z"/>
      </g>
    </g>
    <g id="g4761">
      <g id="path4763">
        <path d="m1000,1041.02c-10.88,0-21.31-4.32-29-12.01l-174.02-174.02c-16.02-16.02-16.02-41.99,0-58,16.02-16.02,41.99-16.02,58.01,0l145.01,145.01,145.01-145.01c16.02-16.02,41.99-16.02,58,0,16.02,16.02,16.02,41.99,0,58l-174.01,174.02c-7.69,7.69-18.12,12.01-29,12.01Z"/>
      </g>
    </g>
    <g id="g4765">
      <g id="path4767">
        <path d="m1000,712.89c-22.65,0-41.02-18.36-41.02-41.02v-82.03c0-22.65,18.36-41.02,41.02-41.02s41.02,18.36,41.02,41.02v82.03c0,22.65-18.36,41.02-41.02,41.02Z"/>
      </g>
    </g>
    <g id="g4769">
      <g id="path4771">
        <path d="m1000,1451.17c-22.65,0-41.02-18.36-41.02-41.02v-82.03c0-22.65,18.36-41.02,41.02-41.02s41.02,18.36,41.02,41.02v82.03c0,22.65-18.36,41.02-41.02,41.02Z"/>
      </g>
    </g>
    <g id="g4773">
      <g id="path4775">
        <path d="m671.87,1041.01h-82.03c-22.65,0-41.02-18.36-41.02-41.02s18.36-41.02,41.02-41.02h82.03c22.65,0,41.02,18.36,41.02,41.02s-18.36,41.02-41.02,41.02Z"/>
      </g>
    </g>
    <g id="g4777">
      <g id="path4779">
        <path d="m1410.16,1041.01h-82.03c-22.65,0-41.02-18.36-41.02-41.02s18.36-41.02,41.02-41.02h82.03c22.65,0,41.02,18.36,41.02,41.02s-18.36,41.02-41.02,41.02Z"/>
      </g>
    </g>
    <g id="g4781">
      <g id="path4783">
        <path d="m486.73,632.06c-10.71,0-21.19-4.2-29.01-12.01-10.98-10.98-14.82-27.23-9.91-41.97l58-174.01c7.16-21.49,30.39-33.11,51.88-25.94,21.49,7.16,33.1,30.39,25.94,51.88l-32.07,96.19,96.2-32.06c21.49-7.16,44.72,4.45,51.88,25.94,7.16,21.49-4.45,44.72-25.94,51.88l-174.02,58c-4.25,1.42-8.63,2.11-12.96,2.11Z"/>
      </g>
    </g>
  </g>
</svg>