<?xml version="1.0" encoding="UTF-8"?>
<svg id="Layer_1" data-name="Layer 1" xmlns="http://www.w3.org/2000/svg" viewBox="0 0 2000 2000">
  <path d="m1697.63,905.9c-2.51-32.69-17.6-62.43-42.48-83.75l-120.75-103.5v-294.11c0-22.59-18.31-40.9-40.9-40.9h-163.59c-22.59,0-40.35,18.31-40.35,40.9v83.78l-206.98-176.4c-46.27-39.64-113.43-39.64-159.56-.12l-578.15,490.33c-51.13,43.81-57.77,121.12-13.27,173.06,33.92,39.44,88.24,52.01,134.56,35.74v625.98c0,22.59,17.77,40.9,40.35,40.9h986.98c22.59,0,40.9-18.31,40.9-40.9v-625.97c47.81,16.9,100.99,2.74,134.06-35.8,21.32-24.89,31.69-56.59,29.18-89.25Zm-326.82-440.46h82.34v183.1l-82.34-70.11v-112.99Zm-203.94,1150.59h-333.17v-327.72h333.17v327.72Zm286.28,0h-205.03v-368.07c0-22.59-18.31-40.9-40.9-40.9h-414.43c-22.59,0-40.35,18.31-40.35,40.9v368.07h-205.03v-643.9l455.18-386.12,450.55,385.74v644.29h0Zm153.21-674.12c-14.5,16.9-40.28,19.38-57.69,4.45l-519.32-445.15c-15.26-13.08-37.75-13.13-53.07-.14-11.07,9.38-522.74,443.43-524.91,445.27-17.13,14.66-43.03,12.66-57.7-4.4-14.68-17.14-12.7-43.01,4.28-57.56l578.15-490.34c15.43-13.22,37.83-13.22,53.25,0l572.56,490.22c17.12,14.67,19.1,40.54,4.44,57.65Z"/>
  <path d="m1125.43,792.61h-250.83c-22.59,0-40.35,18.31-40.35,40.9v245.38c0,22.59,17.77,40.9,40.35,40.9h250.83c22.59,0,40.9-18.31,40.9-40.9v-245.38c0-22.59-18.31-40.9-40.9-40.9Zm-40.35,245.38h-169.59v-163.59h169.59v163.59Z"/>
</svg>