<?xml version="1.0" encoding="UTF-8"?>
<svg id="Layer_1" data-name="Layer 1" xmlns="http://www.w3.org/2000/svg" viewBox="0 0 2000 2000">
  <g id="g637">
    <g id="g643">
      <g id="path645">
        <path d="m1412.79,1704.5h-825.59c-68.28,0-123.84-55.55-123.84-123.84V419.34c0-68.28,55.55-123.84,123.84-123.84h632.96c10.95,0,21.45,4.35,29.19,12.09l275.18,275.2c7.74,7.74,12.09,18.24,12.09,29.19v968.68c0,68.28-55.55,123.84-123.84,123.84ZM587.21,378.06c-22.76,0-41.28,18.52-41.28,41.28v1161.32c0,22.76,18.52,41.28,41.28,41.28h825.59c22.76,0,41.28-18.52,41.28-41.28v-951.58l-251-251.02h-615.86Z"/>
      </g>
    </g>
    <g id="g647">
      <g id="path649">
        <path d="m1495.35,653.25h-275.19c-22.8,0-41.28-18.48-41.28-41.28v-275.19c0-16.7,10.06-31.75,25.48-38.14,15.42-6.39,33.18-2.86,44.99,8.95l275.19,275.19c11.81,11.81,15.34,29.56,8.95,44.99-6.39,15.42-21.44,25.48-38.14,25.48Zm-233.92-82.56h134.26l-134.26-134.26v134.26Z"/>
      </g>
    </g>
    <g id="path651">
      <path d="m1330.23,1454.07h-660.47c-22.8,0-41.28-18.48-41.28-41.28v-550.39c0-22.8,18.48-41.28,41.28-41.28h660.47c22.8,0,41.28,18.48,41.28,41.28v550.39c0,22.8-18.48,41.28-41.28,41.28Zm-619.19-82.56h577.91v-467.83h-577.91v467.83Z"/>
    </g>
    <g id="g653">
      <g id="path655">
        <path d="m876.16,1027.52c0,22.8-18.48,41.28-41.28,41.28s-41.28-18.48-41.28-41.28,18.48-41.28,41.28-41.28,41.28,18.48,41.28,41.28"/>
      </g>
    </g>
    <g id="g657">
      <g id="path659">
        <path d="m1082.56,1454.07h-412.79c-16.02,0-30.59-9.27-37.38-23.77-6.79-14.5-4.58-31.63,5.67-43.93l206.4-247.68c7.84-9.41,19.46-14.85,31.71-14.85s23.87,5.44,31.71,14.85l206.4,247.68c10.25,12.31,12.46,29.43,5.67,43.93-6.79,14.51-21.37,23.77-37.38,23.77Zm-324.66-82.56h236.53l-118.26-141.92-118.26,141.92Z"/>
      </g>
    </g>
    <g id="g661">
      <g id="path663">
        <path d="m1330.23,1454.07h-247.68c-12.25,0-23.87-5.44-31.71-14.85l-110.08-132.09c-12.76-15.31-12.76-37.54,0-52.85l165.12-198.14c7.84-9.41,19.46-14.85,31.71-14.85s23.87,5.44,31.71,14.85l192.64,231.16c6.18,7.42,9.57,16.77,9.57,26.43v99.07c0,22.8-18.48,41.28-41.28,41.28Zm-228.34-82.56h187.06v-42.85l-151.36-181.63-111.38,133.66,75.68,90.81Z"/>
      </g>
    </g>
  </g>
</svg>