<?xml version="1.0" encoding="UTF-8"?>
<svg id="Layer_2" data-name="Layer 2" xmlns="http://www.w3.org/2000/svg" viewBox="0 0 2000 2000">
  <g id="g217">
    <g id="g223">
      <g id="path225">
        <path d="m1000,1046.83c-50.2,0-98.91-9.84-144.77-29.24-44.29-18.73-84.06-45.55-118.21-79.7-34.15-34.15-60.96-73.92-79.7-118.21-19.4-45.86-29.23-94.57-29.23-144.77s9.84-98.91,29.23-144.77c18.73-44.29,45.55-84.06,79.7-118.21s73.92-60.96,118.21-79.7c45.86-19.4,94.57-29.23,144.77-29.23s98.91,9.84,144.77,29.23c44.29,18.73,84.06,45.55,118.21,79.7,34.15,34.15,60.96,73.92,79.7,118.21,19.4,45.86,29.23,94.57,29.23,144.77s-9.84,98.91-29.23,144.77c-18.73,44.29-45.55,84.06-79.7,118.21-34.15,34.15-73.92,60.96-118.21,79.7-45.86,19.4-94.57,29.24-144.77,29.24Zm0-704.12c-183.18,0-332.21,149.03-332.21,332.21s149.03,332.21,332.21,332.21,332.21-149.03,332.21-332.21-149.03-332.21-332.21-332.21Z"/>
      </g>
    </g>
    <g id="g227">
      <g id="path229">
        <path d="m1000,943.71c-71.8,0-139.3-27.96-190.07-78.73-50.77-50.77-78.73-118.27-78.73-190.07,0-44.75,11.22-89.05,32.45-128.14,5.23-9.63,17.29-13.2,26.92-7.97,9.63,5.23,13.2,17.29,7.97,26.92-18.08,33.28-27.64,71.04-27.64,109.19,0,126.32,102.77,229.09,229.09,229.09s229.1-102.77,229.1-229.09-102.77-229.09-229.09-229.09c-57.03,0-111.67,21.08-153.87,59.36-8.12,7.37-20.68,6.75-28.04-1.37s-6.76-20.68,1.37-28.04c49.52-44.92,113.64-69.66,180.55-69.66,71.8,0,139.3,27.96,190.07,78.73,50.77,50.77,78.73,118.27,78.73,190.07s-27.96,139.3-78.73,190.07c-50.77,50.77-118.27,78.73-190.07,78.73Z"/>
      </g>
    </g>
    <g id="g231">
      <g id="path233">
        <path d="m997.33,811.88c-2.45,0-4.97-.08-7.57-.23-64.8-3.95-78.76-54.06-79.32-56.19l38.39-10.13s-.03-.12-.09-.34c.78,2.54,8.59,24.91,43.44,27.03,16.14.98,28.5-2.43,36.71-10.15,8.68-8.17,11.77-20.29,11.77-28.92,0-8.13,0-32.89-47.61-38.14-54.26-5.99-73.52-42.25-73.52-71.49s20.11-75.52,75.52-75.52c40.32,0,62.92,25.75,69.92,40.96l-36.07,16.6s.04.11.14.3c-.94-1.86-9.85-18.16-33.99-18.16-13.27,0-22.67,4.31-28.74,13.19-5.58,8.16-7.07,18.06-7.07,22.63,0,8.36,3.72,28.22,38.17,32.03,74.88,8.26,82.97,57.03,82.97,77.61,0,21.92-9.07,43.54-24.27,57.84-10.48,9.86-28.96,21.1-58.76,21.1Z"/>
      </g>
    </g>
    <g id="g235">
      <g id="path237">
        <path d="m995.04,587.5c-10.96,0-19.85-8.89-19.85-19.85v-45.57c0-10.96,8.89-19.85,19.85-19.85s19.85,8.89,19.85,19.85v45.57c0,10.96-8.89,19.85-19.85,19.85Z"/>
      </g>
    </g>
    <g id="g239">
      <g id="path241">
        <path d="m995.04,857.45c-10.96,0-19.85-8.89-19.85-19.85v-45.57c0-10.96,8.89-19.85,19.85-19.85s19.85,8.89,19.85,19.85v45.57c0,10.96-8.89,19.85-19.85,19.85Z"/>
      </g>
    </g>
    <g id="g243">
      <g id="path245">
        <path d="m716.01,1697h-156.84c-10.96,0-19.85-8.89-19.85-19.85v-87.78c0-10.96,8.89-19.85,19.85-19.85s19.85,8.89,19.85,19.85v67.93h117.14v-244.69c0-10.96,8.89-19.85,19.85-19.85h14.76l-93.18-99.06-93.18,99.06h14.76c10.96,0,19.85,8.89,19.85,19.85v94.84c0,10.96-8.89,19.85-19.85,19.85s-19.85-8.89-19.85-19.85v-74.99h-40.83c-7.92,0-15.08-4.71-18.22-11.98s-1.66-15.71,3.76-21.48l139.11-147.89c3.75-3.99,8.98-6.25,14.46-6.25h0c5.48,0,10.71,2.26,14.46,6.25l139.1,147.89c5.43,5.77,6.9,14.21,3.76,21.48s-10.3,11.98-18.22,11.98h-40.83v244.69c0,10.96-8.89,19.85-19.85,19.85Z"/>
      </g>
    </g>
    <g id="g247">
      <g id="path249">
        <path d="m1078.42,1697h-156.84c-10.96,0-19.85-8.89-19.85-19.85v-385.57h-40.83c-7.92,0-15.08-4.71-18.22-11.98-3.14-7.27-1.66-15.71,3.76-21.48l139.11-147.89c3.75-3.99,8.98-6.25,14.46-6.25s10.71,2.26,14.46,6.25l139.11,147.89c5.43,5.77,6.9,14.21,3.76,21.48-3.14,7.27-10.3,11.98-18.22,11.98h-40.83v385.57c0,10.96-8.89,19.85-19.85,19.85Zm-136.99-39.7h117.14v-385.57c0-10.96,8.89-19.85,19.85-19.85h14.76l-93.18-99.06-93.18,99.06h14.76c10.96,0,19.85,8.89,19.85,19.85v385.57Z"/>
      </g>
    </g>
    <g id="g251">
      <g id="path253">
        <path d="m1440.84,1697h-156.84c-10.96,0-19.85-8.89-19.85-19.85v-308.42c0-10.96,8.89-19.85,19.85-19.85s19.85,8.89,19.85,19.85v288.57h117.14v-515.93c0-10.96,8.89-19.85,19.85-19.85h14.76l-93.18-99.06-93.18,99.06h14.76c10.96,0,19.85,8.89,19.85,19.85v145.45c0,10.96-8.89,19.85-19.85,19.85s-19.85-8.89-19.85-19.85v-125.6h-40.83c-7.92,0-15.08-4.71-18.22-11.98s-1.66-15.71,3.76-21.48l139.11-147.89c3.75-3.99,8.98-6.25,14.46-6.25h0c5.48,0,10.71,2.26,14.46,6.25l139.1,147.89c5.43,5.77,6.9,14.21,3.76,21.48-3.14,7.27-10.3,11.98-18.22,11.98h-40.83v515.93c0,10.96-8.89,19.85-19.85,19.85Z"/>
      </g>
    </g>
  </g>
</svg>