<?xml version="1.0" encoding="UTF-8"?>
<svg id="Layer_1" data-name="Layer 1" xmlns="http://www.w3.org/2000/svg" viewBox="0 0 2000 2000">
  <path d="m1221.61,1387.61h-70.79v-467.48c0-82.83-67.39-150.22-150.22-150.22h-126.51c-82.83,0-150.22,67.39-150.22,150.22,0,74.77,54.91,136.95,126.51,148.35v319.12h-70.79c-82.83,0-150.22,67.39-150.22,150.22s67.39,150.22,150.22,150.22h442.02c82.83,0,150.22-67.39,150.22-150.22s-67.39-150.21-150.21-150.21Zm0,203h-442.02c-29.1,0-52.78-23.67-52.78-52.78s23.67-52.78,52.78-52.78h119.51c26.91,0,48.72-21.81,48.72-48.72v-414.7c0-26.91-21.81-48.72-48.72-48.72h-25.02c-29.1,0-52.78-23.67-52.78-52.78s23.67-52.78,52.78-52.78h126.51c29.1,0,52.78,23.67,52.78,52.78v516.2c0,26.91,21.81,48.72,48.72,48.72h119.51c29.1,0,52.78,23.67,52.78,52.78s-23.67,52.78-52.78,52.78Z"/>
  <path d="m1000.6,682.22c108.4,0,196.58-88.19,196.58-196.58s-88.18-196.59-196.58-196.59-196.58,88.19-196.58,196.58,88.19,196.59,196.58,196.59Zm0-295.73c54.67,0,99.14,44.48,99.14,99.14s-44.48,99.14-99.14,99.14-99.14-44.47-99.14-99.14,44.48-99.14,99.14-99.14Z"/>
</svg>