<?xml version="1.0" encoding="UTF-8"?>
<svg id="Layer_2" data-name="Layer 2" xmlns="http://www.w3.org/2000/svg" viewBox="0 0 2000 2000">
  <path d="m510.05,559.38c-115.32,0-209.14,93.79-209.14,209.06,0,115.28,93.82,209.06,209.14,209.06s209.14-93.79,209.14-209.06-93.82-209.06-209.14-209.06Zm0,324.02c-63.41,0-115-51.57-115-114.96s51.59-114.96,115-114.96,115,51.57,115,114.96-51.59,114.96-115,114.96Z"/>
  <path d="m999.41,299.72c-154.07,0-279.41,125.3-279.41,279.31s125.34,279.31,279.41,279.31,279.41-125.3,279.41-279.31-125.34-279.31-279.41-279.31Zm0,464.51c-102.16,0-185.27-83.08-185.27-185.2s83.11-185.2,185.27-185.2,185.27,83.08,185.27,185.2-83.11,185.2-185.27,185.2Z"/>
  <path d="m1324.91,1599.76h0s-.2-451.15-.5-456.56c0-131.59-81.5-230.82-204.14-230.82h-241.72c-79.58,0-148.65,55.18-182.48,135.5-17.15-5.65-35.17-8.72-53.78-8.72h-136.75c-112.84,0-204.64,110.87-204.64,247.15v264.01c0,81.77,55.08,148.29,122.78,148.29h901.22v-98.86Zm-651-440.22v440.22h-250.22c-22.57,0-40.93-22.17-40.93-49.43v-264.01c0-81.77,55.08-148.29,122.78-148.29h136.75c11.11,0,21.87,1.82,32.11,5.18-.29,5.41-.5,10.84-.5,16.33Zm569.14,440.22h-487.29v-440.22c0-81.77,55.08-148.29,122.78-148.29h241.72c67.7,0,122.78,66.52,122.78,148.29v440.22Z"/>
  <g id="g1423">
    <g id="g1429">
      <g id="path1431">
        <path d="m1493.41,1083.11c-33.23,0-60.27-27.04-60.27-60.27v-103.95h-103.95c-33.23,0-60.27-27.04-60.27-60.27s27.04-60.27,60.27-60.27h103.95v-103.95c0-33.23,27.04-60.27,60.27-60.27s60.27,27.04,60.27,60.27v103.95h103.95c33.23,0,60.27,27.04,60.27,60.27s-27.04,60.27-60.27,60.27h-103.95v103.95c0,33.23-27.04,60.27-60.27,60.27Zm-164.23-239.64c-8.35,0-15.14,6.79-15.14,15.14s6.79,15.14,15.14,15.14h126.52c12.44,0,22.57,10.12,22.57,22.57v126.52c0,8.35,6.79,15.14,15.14,15.14s15.14-6.79,15.14-15.14v-126.52c0-12.44,10.12-22.57,22.57-22.57h126.52c8.35,0,15.14-6.79,15.14-15.14s-6.79-15.14-15.14-15.14h-126.52c-12.44,0-22.57-10.12-22.57-22.57v-126.52c0-8.35-6.79-15.14-15.14-15.14s-15.14,6.79-15.14,15.14v126.52c0,12.44-10.12,22.57-22.57,22.57h-126.52Z"/>
        <path d="m1493.41,1073.11c-27.72,0-50.27-22.55-50.27-50.27v-113.95h-113.95c-27.72,0-50.27-22.55-50.27-50.27s22.55-50.27,50.27-50.27h113.95v-113.95c0-27.72,22.55-50.27,50.27-50.27s50.27,22.55,50.27,50.27v113.95h113.95c27.72,0,50.27,22.55,50.27,50.27s-22.55,50.27-50.27,50.27h-113.95v113.95c0,27.72-22.55,50.27-50.27,50.27Zm-164.23-239.64c-13.86,0-25.14,11.28-25.14,25.14s11.28,25.14,25.14,25.14h126.52c6.94,0,12.57,5.63,12.57,12.57v126.52c0,13.86,11.28,25.14,25.14,25.14s25.14-11.28,25.14-25.14v-126.52c0-6.94,5.63-12.57,12.57-12.57h126.52c13.86,0,25.14-11.28,25.14-25.14s-11.28-25.14-25.14-25.14h-126.52c-6.94,0-12.57-5.63-12.57-12.57v-126.52c0-13.86-11.28-25.14-25.14-25.14s-25.14,11.28-25.14,25.14v126.52c0,6.94-5.63,12.57-12.57,12.57h-126.52Z"/>
      </g>
    </g>
  </g>
</svg>