<?xml version="1.0" encoding="UTF-8"?>
<svg id="Layer_2" data-name="Layer 2" xmlns="http://www.w3.org/2000/svg" viewBox="0 0 2000 2000">
  <path d="m1027.19,546.27c0-17.6-14.26-31.86-31.86-31.86-253.7,0-460.1,206.4-460.1,460.1,0,17.6,14.26,31.86,31.86,31.86s31.86-14.26,31.86-31.86c0-218.57,177.82-396.39,396.39-396.39,17.6,0,31.86-14.27,31.86-31.86Z"/>
  <path d="m995.34,723.49c-138.42,0-251.04,112.62-251.04,251.04s112.62,251.04,251.04,251.04,251.04-112.62,251.04-251.04-112.62-251.04-251.04-251.04Zm0,438.36c-103.29,0-187.32-84.04-187.32-187.32s84.04-187.32,187.32-187.32,187.32,84.02,187.32,187.32-84.04,187.32-187.32,187.32Z"/>
  <path d="m995.33,875.23c-54.75,0-99.29,44.54-99.29,99.29s44.54,99.29,99.29,99.29,99.29-44.54,99.29-99.29-44.54-99.29-99.29-99.29Zm0,134.87c-19.62,0-35.58-15.97-35.58-35.58s15.97-35.58,35.58-35.58,35.58,15.95,35.58,35.58-15.95,35.58-35.58,35.58Z"/>
  <path d="m1780.68,389.11l-159.65-80.45c-24.38-12.27-52.7-13.08-77.73-2.2l-71.28,30.97c-2.82,1.23-5.39,2.85-7.67,4.74-54.34-7.35-121.28-6.58-170.67,26.32-15.29,10.19-28,22.67-38.13,37.33-81.15-37.08-170.45-56.63-260.21-56.63-150.34,0-295.22,53.98-408.67,152.07-116.07,44.33-215.42,121.46-287.57,223.4-74.95,105.89-114.56,230.68-114.56,360.86,0,344.81,280.52,625.32,625.34,625.32,150.28,0,295.13-53.96,408.59-152.02,116.09-44.34,215.46-121.47,287.62-223.42,74.96-105.9,114.59-230.69,114.59-360.87,0-222.93-117.15-426.35-307.78-538.72,4.63-5.45,9.97-10.18,16.04-14.24,33.79-22.56,86.56-22.37,132.18-15.57l10.08,43.55c6.15,26.58,23.64,48.87,48.02,61.15l159.65,80.45c9.15,4.6,18.89,6.79,28.5,6.79,23.26,0,45.71-12.81,56.87-34.96l44.6-88.52c15.77-31.3,3.14-69.6-28.16-85.37Zm-970.8,1258.02c-309.69,0-561.62-251.93-561.62-561.61,0-175.82,83.26-339.16,217.76-443.89-.36.57-.71,1.16-1.06,1.72-.57.92-1.13,1.84-1.71,2.76-2.19,3.55-4.34,7.12-6.46,10.7-.46.8-.95,1.58-1.41,2.38-2.43,4.16-4.79,8.33-7.12,12.52-.53.98-1.07,1.97-1.6,2.95-1.99,3.66-3.96,7.33-5.89,11.03-.41.78-.82,1.56-1.23,2.34-2.19,4.27-4.33,8.55-6.43,12.87-.5,1.03-.98,2.07-1.48,3.1-1.82,3.77-3.58,7.57-5.33,11.37-.35.76-.7,1.51-1.05,2.26-1.97,4.37-3.88,8.77-5.75,13.18-.45,1.08-.9,2.17-1.36,3.25-1.62,3.88-3.2,7.79-4.74,11.7-.29.73-.58,1.47-.87,2.2-1.74,4.47-3.41,8.96-5.05,13.46-.4,1.12-.8,2.24-1.19,3.36-1.43,4.01-2.83,8.04-4.18,12.08-.22.68-.46,1.36-.68,2.04-1.49,4.55-2.94,9.15-4.34,13.75-.35,1.14-.68,2.3-1.03,3.46-1.23,4.14-2.44,8.3-3.58,12.47-.17.61-.35,1.23-.52,1.84-1.26,4.65-2.46,9.33-3.62,14.01-.3,1.18-.57,2.36-.86,3.55-1.05,4.29-2.04,8.59-2.99,12.9-.11.52-.24,1.05-.35,1.58-1.03,4.73-1.98,9.48-2.9,14.25-.22,1.19-.45,2.4-.67,3.6-.83,4.46-1.62,8.91-2.35,13.37-.06.42-.14.86-.21,1.28-.77,4.8-1.48,9.63-2.15,14.47-.16,1.21-.32,2.43-.49,3.65-.6,4.59-1.17,9.2-1.67,13.81-.04.32-.09.63-.11.96-.52,4.87-.97,9.76-1.38,14.66-.1,1.22-.2,2.44-.29,3.66-.37,4.79-.71,9.58-.97,14.39-.01.16-.02.34-.04.5-.26,4.94-.45,9.89-.6,14.85-.04,1.22-.06,2.45-.1,3.67-.11,4.98-.2,9.96-.2,14.95,0,344.82,280.52,625.34,625.34,625.34,6.48,0,12.95-.14,19.41-.34,1.49-.04,2.97-.09,4.47-.14,6.36-.25,12.72-.56,19.05-.98.2-.01.4-.02.6-.04-71.44,31.92-149.38,48.77-229,48.77Zm747.09-672.6c0,233.69-147.14,445.34-366.15,526.65-58.55,21.75-120.01,33.44-182.88,34.82-4.19.1-8.39.14-12.59.14-309.68,0-561.62-251.93-561.62-561.61,0-15.12.62-30.18,1.82-45.14.45-5.53,1-11.03,1.61-16.53.96-8.74,2.14-17.43,3.51-26.1.24-1.49.49-2.99.73-4.48,21.11-126.6,85.18-243.3,182.92-329.36,102.47-90.3,234.24-140.02,371.04-140.02,82.65,0,161.83,17.45,235.77,51.78-2.4,11.37-3.96,23.41-4.58,36.2-.85,17.57,12.71,32.52,30.28,33.36.52.02,1.05.04,1.57.04,16.89,0,30.97-13.27,31.8-30.31.11-2.46.27-4.88.49-7.24,165.25,102.09,266.31,281.56,266.31,477.8Zm194.98-528.72l-44.4,88.45-159.65-80.45c-7.43-3.73-12.76-10.52-14.62-18.62l-3.05-13.19c2.65.87,5.13,1.7,7.33,2.49,16.53,5.96,34.78-2.6,40.76-19.14,5.35-14.8-.96-30.95-14.19-38.48l4.58-1.99c7.62-3.31,16.24-3.06,23.66.67l159.6,80.24h-.01Z"/>
  <path d="m613.37,1076.8c-.8-1.92-1.78-3.77-2.92-5.51-1.18-1.73-2.51-3.38-3.98-4.84-1.47-1.47-3.09-2.78-4.84-3.96-1.72-1.14-3.57-2.13-5.49-2.92-1.94-.8-3.94-1.41-5.95-1.82-4.12-.83-8.35-.83-12.46,0-2.04.41-4.04,1.02-5.96,1.82s-3.8,1.78-5.51,2.92c-1.75,1.18-3.37,2.49-4.84,3.96-1.47,1.46-2.8,3.11-3.94,4.84-1.16,1.74-2.14,3.6-2.94,5.51-.8,1.9-1.41,3.91-1.82,5.95-.41,2.08-.63,4.14-.63,6.25s.22,4.17.63,6.21c.41,2.04,1.02,4.04,1.82,5.96.8,1.92,1.78,3.76,2.94,5.51,1.15,1.72,2.48,3.37,3.94,4.84,1.47,1.47,3.09,2.8,4.84,3.94,1.72,1.16,3.6,2.14,5.51,2.94,1.92.8,3.92,1.41,5.96,1.82,2.04.41,4.14.63,6.21.63s4.17-.22,6.25-.63c2-.41,4.01-1.02,5.95-1.82,1.92-.8,3.77-1.78,5.49-2.94,1.75-1.14,3.37-2.48,4.84-3.94,5.96-5.92,9.33-14.15,9.33-22.52,0-2.1-.19-4.17-.61-6.25-.41-2.04-1.02-4.04-1.82-5.95Z"/>
</svg>