<?xml version="1.0" encoding="UTF-8"?>
<svg id="Layer_1" data-name="Layer 1" xmlns="http://www.w3.org/2000/svg" viewBox="0 0 2000 2000">
  <g>
    <g>
      <path d="m838.27,1287.21c-10.59,0-21.17-4.04-29.25-12.12l-343.21-343.21c-7.76-7.76-12.12-18.28-12.12-29.25s4.36-21.49,12.12-29.25l70.96-70.96c20.11-20.11,46.85-31.19,75.3-31.19s55.19,11.08,75.3,31.19l251.11,251.12c20.11,20.11,31.19,46.85,31.19,75.3s-11.08,55.19-31.19,75.3l-70.96,70.96c-8.08,8.08-18.66,12.12-29.25,12.12Zm-284.71-384.58l284.71,284.71,41.71-41.7s0,0,0,0c4.49-4.49,6.96-10.45,6.96-16.79s-2.47-12.31-6.96-16.79l-251.12-251.12c-4.49-4.49-10.45-6.96-16.8-6.96s-12.31,2.47-16.8,6.96l-41.7,41.71Z"/>
      <path d="m1288.46,810.05h0c-28.45,0-55.19-11.08-75.3-31.2l-251.11-251.11c-20.11-20.11-31.19-46.85-31.19-75.3s11.08-55.19,31.19-75.3l70.96-70.96c7.76-7.76,18.28-12.12,29.25-12.12s21.49,4.36,29.25,12.12l343.21,343.21c16.16,16.16,16.16,42.35,0,58.5l-70.96,70.96c-20.11,20.11-46.85,31.19-75.29,31.19Zm-226.21-416.11l-41.71,41.7c-4.49,4.49-6.96,10.45-6.96,16.8s2.47,12.31,6.96,16.79l251.12,251.12c4.49,4.49,10.45,6.96,16.8,6.96s12.31-2.47,16.79-6.96c0,0,0,0,0,0l41.7-41.71-284.71-284.71Z"/>
    </g>
    <path d="m650.53,866.52c-10.59,0-21.17-4.04-29.25-12.12-16.16-16.16-16.16-42.35,0-58.5l334.24-334.24c16.15-16.16,42.35-16.16,58.5,0,16.16,16.16,16.16,42.35,0,58.5l-334.24,334.24c-8.08,8.08-18.66,12.12-29.25,12.12Z"/>
    <path d="m915.74,1131.73c-10.59,0-21.17-4.04-29.25-12.12-16.16-16.15-16.16-42.35,0-58.5l334.24-334.24c16.15-16.16,42.35-16.16,58.5,0,16.16,16.15,16.16,42.35,0,58.5l-334.24,334.24c-8.08,8.08-18.66,12.12-29.25,12.12Z"/>
    <path d="m1556.73,1555.48c-10.97,0-21.49-4.36-29.25-12.12l-532.37-532.37c-16.16-16.16-16.16-42.35,0-58.5,16.15-16.16,42.35-16.16,58.5,0l503.12,503.12,58.5-58.5-503.12-503.12c-16.16-16.16-16.16-42.35,0-58.5,16.15-16.16,42.35-16.16,58.5,0l532.37,532.37c16.16,16.16,16.16,42.35,0,58.5l-117,117.01c-7.76,7.76-18.28,12.12-29.25,12.12Z"/>
  </g>
  <path d="m1345.55,1706.07H344.47c-22.85,0-41.37-18.52-41.37-41.37s18.52-41.37,41.37-41.37h1001.09c22.85,0,41.37,18.52,41.37,41.37s-18.52,41.37-41.37,41.37Z"/>
  <path d="m1226.97,1706.07H463.05c-22.85,0-41.37-18.52-41.37-41.37v-65.76c0-77.79,63.28-141.07,141.07-141.07h564.5c77.79,0,141.07,63.29,141.07,141.07v65.76c0,22.85-18.52,41.37-41.37,41.37Zm-722.55-82.73h681.18v-24.39c0-32.17-26.17-58.34-58.34-58.34h-564.5c-32.17,0-58.34,26.17-58.34,58.34v24.39Z"/>
</svg>