<?xml version="1.0" encoding="UTF-8"?>
<svg id="Layer_1" data-name="Layer 1" xmlns="http://www.w3.org/2000/svg" viewBox="0 0 2000 2000">
  <path d="m1053.05,1265.27l-212.22,212.22s0,0,0,0c0,0,0,0,0,0-87.76,87.76-230.56,87.77-318.33,0-42.52-42.52-65.93-99.05-65.93-159.17s23.41-116.64,65.91-159.15c0,0,0,0,.01-.02l212.22-212.22c29.3-29.3,29.3-76.81,0-106.11-29.3-29.3-76.81-29.3-106.11,0l-212.22,212.22s-.03.04-.05.05c-70.83,70.85-109.83,165.05-109.83,265.23s39.02,194.42,109.88,265.28c73.14,73.14,169.21,109.71,265.28,109.71s192.14-36.57,265.28-109.71h0s0-.01,0-.01l212.22-212.22c29.3-29.3,29.3-76.81,0-106.11-29.29-29.3-76.8-29.3-106.11,0Z"/>
  <path d="m1693.5,681.66c0-100.21-39.03-194.42-109.89-265.28-146.28-146.27-384.29-146.27-530.56,0,0,.01-.02.02-.02.03l-212.21,212.21c-29.3,29.3-29.3,76.81,0,106.11,14.66,14.66,33.85,21.98,53.06,21.98s38.41-7.33,53.05-21.98l212.21-212.21s.02-.01.03-.03c87.76-87.76,230.56-87.76,318.33,0,42.51,42.52,65.93,99.05,65.93,159.17s-23.41,116.64-65.92,159.15c0,0,0,0-.02.01l-212.22,212.22c-29.3,29.3-29.3,76.81,0,106.11,14.65,14.65,33.85,21.98,53.05,21.98s38.41-7.33,53.06-21.98l212.22-212.22s.03-.04.05-.05c70.83-70.85,109.84-165.05,109.84-265.23Z"/>
  <path d="m734.72,1265.27c14.65,14.65,33.85,21.98,53.05,21.98s38.41-7.33,53.06-21.98l424.45-424.45c29.3-29.3,29.3-76.81,0-106.11-29.3-29.3-76.81-29.3-106.11,0l-424.45,424.44c-29.3,29.31-29.3,76.82,0,106.12Z"/>
</svg>