<?xml version="1.0" encoding="UTF-8"?>
<svg id="Layer_1" data-name="Layer 1" xmlns="http://www.w3.org/2000/svg" viewBox="0 0 2000 2000">
  <path d="m1674.09,1244.4h-175.21v-375.32c0-13.76-11.15-24.91-24.91-24.91h-400.23c-13.76,0-24.91,11.15-24.91,24.91v375.32h-175.21c-13.76,0-24.91,11.15-24.91,24.91v400.23c0,13.76,11.15,24.91,24.91,24.91h800.46c13.76,0,24.91-11.15,24.91-24.91v-400.23c0-13.76-11.15-24.91-24.91-24.91Zm-224.98,49.82h49.72v72.56h-49.72v-72.56Zm-150.39-400.23v72.56h-49.72v-72.56h49.72Zm-200.07,0h100.52v97.47c0,13.76,11.15,24.91,24.91,24.91h99.54c13.76,0,24.91-11.15,24.91-24.91v-97.47h100.52v350.41h-350.41v-350.41Zm-49.77,400.23h49.72v72.56h-49.72v-72.56Zm-150.34,0h100.52v97.47c0,13.76,11.15,24.91,24.91,24.91h99.54c13.76,0,24.91-11.15,24.91-24.91v-97.47h100.52v350.41h-350.41v-350.41Zm750.64,350.41h-350.41v-350.41h100.52v97.47c0,13.76,11.15,24.91,24.91,24.91h99.54c13.76,0,24.91-11.15,24.91-24.91v-97.47h100.52v350.41Z"/>
  <g id="g3694">
    <g id="g3700">
      <g id="path3702">
        <path d="m961.01,697.34c-10.24,0-19.77-6.5-23.15-16.76-4.22-12.79,2.73-26.58,15.52-30.79l123.17-40.61-61.58-151.85c-14.54-36.35-45.81-63.64-83.68-73.11l-96.01-24c-13.5,52.63-61.34,91.64-118.12,91.64s-104.62-39.01-118.12-91.64l-96.01,24c-38.42,9.6-71.09,37.58-85.26,73l-60.2,151.9,123.37,40.67c12.79,4.22,19.74,18,15.52,30.79-4.22,12.79-18,19.74-30.79,15.52l-147.93-48.77c-6.38-2.1-11.61-6.74-14.45-12.83-2.85-6.08-3.06-13.07-.58-19.31l69.76-176.01c20.21-50.53,64.59-88.74,118.74-102.28l122.5-30.63c7.28-1.82,15-.18,20.92,4.44,5.92,4.62,9.38,11.71,9.38,19.22,0,40.34,32.82,73.15,73.15,73.15s73.15-32.82,73.15-73.15c0-7.51,3.46-14.6,9.38-19.22,5.92-4.62,13.64-6.26,20.92-4.44l122.5,30.63c53.02,13.26,96.79,51.46,117.09,102.2l71.34,175.91c2.54,6.26,2.37,13.28-.47,19.41-2.84,6.13-8.08,10.8-14.49,12.92l-147.93,48.77c-2.53.84-5.11,1.23-7.64,1.23Z"/>
      </g>
    </g>
    <g id="g3704">
      <g id="path3706">
        <path d="m961.01,1137.88h-487.7c-13.47,0-24.38-10.92-24.38-24.38v-586.86c0-13.47,10.92-24.38,24.38-24.38s24.38,10.92,24.38,24.38v562.47h438.93v-562.47c0-13.47,10.92-24.38,24.38-24.38s24.38,10.92,24.38,24.38v586.86c0,13.47-10.92,24.38-24.38,24.38Z"/>
      </g>
    </g>
  </g>
</svg>