<?xml version="1.0" encoding="UTF-8"?>
<svg id="Layer_1" data-name="Layer 1" xmlns="http://www.w3.org/2000/svg" viewBox="0 0 2000 2000">
  <path d="m1000,305.25c-382.57,0-694.75,312.23-694.75,694.75s312.23,694.75,694.75,694.75,694.75-312.23,694.75-694.75-312.23-694.75-694.75-694.75Zm0,1308.08c-338.19,0-613.33-275.14-613.33-613.33S661.81,386.67,1000,386.67s613.33,275.14,613.33,613.33-275.14,613.33-613.33,613.33Z"/>
  <path d="m1431.19,693.46c-14.6-20.48-44.15-22.94-61.93-5.15l-680.95,680.95c-17.8,17.79-15.32,47.33,5.15,61.93,89.96,64.13,195.96,98.02,306.54,98.02,291.8,0,529.2-237.4,529.2-529.2,0-110.58-33.89-216.58-98.02-306.54Zm-431.19,754.33c-77.21,0-151.78-19.53-218.24-56.85l609.19-609.18c37.32,66.47,56.84,141.04,56.84,218.24,0,246.91-200.88,447.79-447.79,447.79Z"/>
  <path d="m1306.54,568.81c-89.96-64.13-195.96-98.02-306.54-98.02-291.8,0-529.2,237.4-529.2,529.2,0,110.58,33.89,216.58,98.02,306.54,14.59,20.46,44.11,22.97,61.93,5.15l680.95-680.95c17.8-17.79,15.32-47.33-5.15-61.93Zm-697.47,649.43c-37.33-66.47-56.85-141.04-56.85-218.24,0-246.91,200.88-447.79,447.79-447.79,77.21,0,151.78,19.53,218.24,56.85l-609.18,609.18Z"/>
</svg>