<?xml version="1.0" encoding="UTF-8"?>
<svg id="Layer_2" data-name="Layer 2" xmlns="http://www.w3.org/2000/svg" viewBox="0 0 2000 2000">
  <path d="m1484.72,1026.06h-136.75c-18.61,0-36.63,3.07-53.78,8.72-33.83-80.31-102.89-135.5-182.47-135.5h-241.72c-79.58,0-148.65,55.18-182.47,135.5-17.15-5.65-35.17-8.72-53.78-8.72h-136.75c-112.84,0-204.64,110.87-204.64,247.15v264.01c0,81.77,55.08,148.29,122.78,148.29h1151.43c67.7,0,122.78-66.52,122.78-148.29v-264.01c0-136.28-91.8-247.15-204.64-247.15Zm-819.36,120.38v440.22h-250.22c-22.57,0-40.93-22.17-40.93-49.43v-264.01c0-81.77,55.08-148.29,122.78-148.29h136.75c11.11,0,21.87,1.82,32.11,5.18-.29,5.41-.5,10.84-.5,16.33Zm569.14,440.22h-487.29v-440.22c0-81.77,55.08-148.29,122.78-148.29h241.72c67.7,0,122.78,66.52,122.78,148.29v440.22Zm373-49.43c0,27.26-18.36,49.43-40.93,49.43h-250.22v-440.22c0-5.49-.2-10.93-.5-16.33,10.24-3.35,21-5.18,32.11-5.18h136.75c67.7,0,122.78,66.52,122.78,148.29v264.02Z"/>
  <path d="m501.5,546.29c-115.32,0-209.14,93.79-209.14,209.06,0,115.28,93.82,209.06,209.14,209.06s209.14-93.79,209.14-209.06-93.82-209.06-209.14-209.06Zm0,324.02c-63.41,0-115-51.57-115-114.96s51.59-114.96,115-114.96,115,51.57,115,114.96-51.59,114.96-115,114.96Z"/>
  <path d="m990.86,286.63c-154.07,0-279.41,125.3-279.41,279.31s125.34,279.31,279.41,279.31,279.41-125.3,279.41-279.31-125.34-279.31-279.41-279.31Zm0,464.51c-102.16,0-185.27-83.08-185.27-185.2s83.11-185.2,185.27-185.2,185.27,83.08,185.27,185.2-83.11,185.2-185.27,185.2Z"/>
  <path d="m1480.22,546.29c-115.32,0-209.14,93.79-209.14,209.06,0,115.28,93.82,209.06,209.14,209.06s209.14-93.79,209.14-209.06-93.82-209.06-209.14-209.06Zm0,324.02c-63.41,0-115-51.57-115-114.96,0-63.39,51.59-114.96,115-114.96s115,51.57,115,114.96-51.59,114.96-115,114.96Z"/>
</svg>