<?xml version="1.0" encoding="UTF-8"?>
<svg id="Layer_1" data-name="Layer 1" xmlns="http://www.w3.org/2000/svg" xmlns:xlink="http://www.w3.org/1999/xlink" viewBox="0 0 2000 2000">
  <defs>
    <style>
      .cls-1 {
        clip-path: url(#clippath);
      }

      .cls-2 {
        fill: none;
      }
    </style>
    <clipPath id="clippath">
      <rect class="cls-2" x="667.44" y="274.35" width="695.97" height="695.97"/>
    </clipPath>
  </defs>
  <path d="m1600.94,1394.49c25.88-31.33,41.45-71.48,41.45-115.19,0-99.87-81.25-181.13-181.13-181.13s-181.13,81.25-181.13,181.13c0,43.72,15.57,83.86,41.45,115.19-33.11,14.59-61.77,37.48-83.25,66.08-21.48-28.6-50.14-51.5-83.25-66.08,25.88-31.33,41.45-71.48,41.45-115.19,0-99.87-81.25-181.13-181.13-181.13s-181.13,81.25-181.13,181.13c0,43.72,15.57,83.86,41.45,115.19-33.11,14.59-61.77,37.48-83.25,66.08-21.48-28.6-50.14-51.5-83.25-66.08,25.88-31.33,41.45-71.48,41.45-115.19,0-99.87-81.25-181.13-181.13-181.13s-181.13,81.25-181.13,181.13c0,43.72,15.57,83.86,41.45,115.19-73.55,32.39-125.05,105.94-125.05,191.33v55.73c0,23.08,18.71,41.8,41.8,41.8h1337.57c23.08,0,41.8-18.71,41.8-41.8v-55.73c0-85.39-51.5-158.94-125.05-191.33Zm-139.68-212.72c53.78,0,97.53,43.75,97.53,97.53s-43.75,97.53-97.53,97.53-97.53-43.75-97.53-97.53,43.75-97.53,97.53-97.53Zm-445.86,0c53.78,0,97.53,43.75,97.53,97.53s-43.75,97.53-97.53,97.53-97.53-43.75-97.53-97.53,43.75-97.53,97.53-97.53Zm-445.86,0c53.78,0,97.53,43.75,97.53,97.53s-43.75,97.53-97.53,97.53-97.53-43.75-97.53-97.53,43.75-97.53,97.53-97.53Zm-181.13,404.06c0-69.14,56.25-125.4,125.4-125.4h111.46c69.14,0,125.4,56.25,125.4,125.4v13.93h-362.26v-13.93Zm445.86,0c0-69.14,56.25-125.4,125.4-125.4h111.46c69.14,0,125.4,56.25,125.4,125.4v13.93h-362.26v-13.93Zm808.11,13.93h-362.26v-13.93c0-69.14,56.25-125.4,125.4-125.4h111.46c69.14,0,125.4,56.25,125.4,125.4v13.93Z"/>
  <g id="g2259">
    <g id="g2261">
      <g class="cls-1">
        <g id="g2263">
          <g id="g2269">
            <g id="path2271">
              <path d="m1220.61,969.87c-36.9,0-73.21-14.26-100.25-41.3-38.88-38.89-51.34-96.94-32.98-148.32l-229.87-229.87c-15.64,5.59-31.91,8.33-48.07,8.33-36.9,0-73.21-14.26-100.25-41.3-42.28-42.28-53.32-107.23-27.46-161.61,2.79-5.87,8.26-10.02,14.66-11.12,6.4-1.1,12.95.97,17.54,5.57l75.35,75.35h29.39v-29.39l-75.35-75.35c-4.6-4.6-6.67-11.14-5.57-17.54s5.25-11.87,11.12-14.66c54.38-25.86,119.33-14.82,161.61,27.46,38.88,38.88,51.34,96.94,32.98,148.32l229.87,229.87c51.38-18.36,109.43-5.91,148.32,32.98,42.28,42.28,53.32,107.23,27.46,161.61-2.79,5.87-8.26,10.02-14.66,11.12-6.4,1.1-12.95-.97-17.54-5.57l-75.35-75.35h-29.39v29.39l75.35,75.35c4.6,4.6,6.67,11.14,5.57,17.54s-5.25,11.87-11.12,14.66c-19.6,9.32-40.57,13.85-61.36,13.85Zm-358.4-463.08c5.19,0,10.31,2.02,14.15,5.86l248.75,248.75c5.98,5.98,7.55,15.09,3.92,22.73-18.61,39.13-10.72,85.81,19.62,116.15,23.11,23.11,55.71,33.19,87.23,28.46l-57.84-57.84c-3.75-3.75-5.86-8.84-5.86-14.14v-57.67c0-11.05,8.95-20,20-20h57.67c5.3,0,10.39,2.11,14.14,5.86l57.85,57.85c4.74-31.52-5.34-64.12-28.46-87.23-30.34-30.34-77.02-38.22-116.15-19.62-7.64,3.63-16.75,2.06-22.73-3.92l-248.75-248.75c-5.98-5.98-7.55-15.09-3.92-22.73,18.61-39.13,10.72-85.81-19.62-116.15-23.11-23.11-55.71-33.2-87.23-28.46l57.84,57.84c3.75,3.75,5.86,8.84,5.86,14.14v57.67c0,11.05-8.95,20-20,20h-57.67c-5.3,0-10.39-2.11-14.14-5.86l-57.85-57.84c-4.74,31.52,5.34,64.12,28.46,87.23,30.34,30.34,77.02,38.22,116.15,19.62,2.74-1.3,5.68-1.94,8.58-1.94Z"/>
            </g>
          </g>
          <g id="g2273">
            <g id="path2275">
              <path d="m769.39,969.93c-27.13,0-52.63-10.56-71.81-29.75-39.6-39.6-39.6-104.03,0-143.62l201.85-201.85c7.81-7.81,20.47-7.81,28.28,0s7.81,20.47,0,28.28l-201.85,201.85c-24,24-24,63.06,0,87.06,11.63,11.63,27.09,18.03,43.53,18.03s31.9-6.4,43.53-18.03l201.85-201.85c7.81-7.81,20.47-7.81,28.28,0s7.81,20.47,0,28.28l-201.85,201.85c-19.18,19.18-44.69,29.75-71.81,29.75Z"/>
            </g>
          </g>
          <g id="g2277">
            <g id="path2279">
              <path d="m711.72,946.04c-5.12,0-10.24-1.95-14.14-5.86-7.81-7.81-7.81-20.47,0-28.28l144.18-144.18c7.81-7.81,20.47-7.81,28.28,0s7.81,20.47,0,28.28l-144.18,144.18c-3.91,3.91-9.02,5.86-14.14,5.86Z"/>
            </g>
          </g>
          <g id="g2281">
            <g id="path2283">
              <path d="m1044.26,613.5c-5.12,0-10.24-1.95-14.14-5.86-7.81-7.81-7.81-20.47,0-28.28l140.16-140.16c7.81-7.81,20.47-7.81,28.28,0s7.81,20.47,0,28.28l-140.16,140.16c-3.91,3.91-9.02,5.86-14.14,5.86Z"/>
            </g>
          </g>
          <g id="g2285">
            <g id="path2287">
              <path d="m1184.43,473.34c-5.27,0-10.36-2.08-14.14-5.86-4.45-4.45-6.55-10.74-5.66-16.97l14.42-100.93c.93-6.5,4.98-12.13,10.85-15.06l115.34-57.67c7.7-3.85,17-2.34,23.09,3.75l28.83,28.84c6.09,6.09,7.6,15.39,3.75,23.09l-57.67,115.34c-2.94,5.87-8.56,9.93-15.06,10.85l-100.92,14.42c-.94.14-1.89.2-2.83.2Zm32.74-107.72l-9.16,64.15,64.15-9.17,46.54-93.08-8.45-8.45-93.08,46.54Z"/>
            </g>
          </g>
        </g>
      </g>
    </g>
  </g>
</svg>