<?xml version="1.0" encoding="UTF-8"?>
<svg id="Layer_2" data-name="Layer 2" xmlns="http://www.w3.org/2000/svg" xmlns:xlink="http://www.w3.org/1999/xlink" viewBox="0 0 2000 2000">
  <defs>
    <style>
      .cls-1 {
        clip-path: url(#clippath);
      }

      .cls-2 {
        fill: none;
      }
    </style>
    <clipPath id="clippath">
      <rect class="cls-2" x="290.49" y="286.5" width="1400" height="1400"/>
    </clipPath>
  </defs>
  <g id="g3111">
    <g id="g3113">
      <g class="cls-1">
        <g id="g3115">
          <g id="g3121">
            <g id="path3123">
              <path d="m1431.66,1044.67c-6.53,0-13.08-1.56-19.08-4.71l-200.61-105.46-200.6,105.46c-13.82,7.26-30.56,6.06-43.19-3.12-12.63-9.18-18.96-24.73-16.32-40.12l38.31-223.37-162.29-158.2c-11.18-10.9-15.2-27.2-10.38-42.05,4.82-14.85,17.66-25.67,33.11-27.91l224.28-32.59,100.3-203.23c6.91-14,21.17-22.86,36.78-22.86s29.87,8.86,36.78,22.86l100.3,203.23,224.29,32.59c15.45,2.25,28.29,13.07,33.11,27.91,4.82,14.85.8,31.15-10.38,42.05l-162.29,158.2,38.31,223.37c2.64,15.39-3.68,30.94-16.32,40.12-7.15,5.19-15.61,7.83-24.11,7.83Zm-219.69-197.53c6.55,0,13.11,1.57,19.09,4.71l146.13,76.82-27.91-162.72c-2.28-13.31,2.13-26.88,11.8-36.3l118.22-115.24-163.38-23.74c-13.36-1.94-24.91-10.33-30.88-22.44l-73.07-148.05-73.07,148.05c-5.97,12.11-17.52,20.5-30.88,22.44l-163.38,23.74,118.22,115.24c9.67,9.42,14.08,23,11.8,36.3l-27.91,162.72,146.13-76.82c5.97-3.14,12.53-4.71,19.09-4.71Z"/>
            </g>
          </g>
          <g id="g3125">
            <g id="path3127">
              <path d="m557.44,1533.93c-22.65,0-41.02-18.36-41.02-41.02v-361.56c0-14.12,7.26-27.25,19.23-34.75,118.43-74.25,272.59-59.6,374.91,35.63,15.49,14.42,34.7,23.99,55.54,27.66l163.38,28.81c74.24,13.09,123.99,84.14,110.9,158.37-13.09,74.24-84.14,123.99-158.38,110.9l-245.56-43.3c-22.31-3.93-37.2-25.21-33.27-47.51s25.22-37.2,47.51-33.27l245.56,43.3c29.69,5.24,58.11-14.66,63.35-44.35,5.23-29.69-14.66-58.11-44.36-63.35l-163.38-28.81c-36.47-6.43-70.08-23.17-97.19-48.4-69.74-64.91-172.28-78.86-256.21-36.97v337.61c0,22.65-18.36,41.02-41.02,41.02Z"/>
            </g>
          </g>
          <g id="path3129">
            <path d="m558.52,1631.81h-227.02c-22.65,0-41.02-18.36-41.02-41.02v-546.87c0-22.65,18.36-41.02,41.02-41.02h227.02c22.65,0,41.02,18.36,41.02,41.02v546.87c0,22.65-18.36,41.02-41.02,41.02Zm-186-82.03h144.99v-464.84h-144.99v464.84Z"/>
          </g>
          <g id="g3131">
            <g id="path3133">
              <path d="m1051.32,1686.5c-58.89,0-117.32-8.72-173.66-25.93l-332.2-101.47c-21.66-6.62-33.86-29.55-27.24-51.21,6.62-21.66,29.54-33.87,51.21-27.24l332.2,101.47c48.56,14.83,98.93,22.35,149.7,22.35,99,0,195.27-28.43,278.39-82.22l258.65-167.36c20.01-12.95,26.08-39.1,13.81-59.53-11.73-19.55-36.08-26.88-56.65-17.05l-340.33,162.6c-38.79,18.54-81.68,24.38-124.02,16.92l-244.73-43.15c-22.31-3.93-37.2-25.21-33.27-47.51s25.21-37.2,47.51-33.27l244.73,43.15c25.41,4.48,51.14.97,74.41-10.15l340.33-162.6c58.95-28.17,128.75-7.16,162.36,48.86,35.14,58.57,17.74,133.51-39.59,170.61l-258.65,167.36c-96.43,62.39-208.11,95.38-322.96,95.38Z"/>
            </g>
          </g>
        </g>
      </g>
    </g>
  </g>
</svg>