<?xml version="1.0" encoding="UTF-8"?>
<svg id="Layer_1" data-name="Layer 1" xmlns="http://www.w3.org/2000/svg" viewBox="0 0 2000 2000">
  <g id="g1411">
    <g id="g1417">
      <g id="path1419">
        <path d="m1438.33,1218.59c-18.03,0-34.53-12.03-39.42-30.28-5.84-21.79,7.09-44.18,28.88-50.02l157.25-42.14c21.75-5.83,34.71-28.27,28.88-50.02l-169.12-631.17c-5.83-21.75-28.27-34.71-50.02-28.88l-894.16,239.59c-21.75,5.83-34.71,28.27-28.88,50.02l39.56,147.65c5.84,21.79-7.09,44.18-28.88,50.02-21.79,5.83-44.18-7.09-50.02-28.88l-39.56-147.65c-17.48-65.26,21.38-132.57,86.63-150.06l894.16-239.59c65.26-17.49,132.57,21.38,150.06,86.63l169.12,631.18c17.48,65.25-21.38,132.57-86.63,150.06l-157.25,42.14c-3.54.95-7.1,1.4-10.6,1.4Z"/>
      </g>
    </g>
    <g id="g1421">
      <g id="path1423">
        <path d="m1038.37,874.76c-18.03,0-34.53-12.03-39.42-30.28-5.84-21.79,7.09-44.18,28.88-50.02l483.91-129.66-21.14-78.9-980.67,262.77c-4.55,11.72-14.44,21.18-27.51,24.68-21.79,5.84-44.18-7.09-50.02-28.88l-4.33-16.15c-2.8-10.46-1.34-21.61,4.08-30.99,5.42-9.38,14.34-16.23,24.8-19.03l1051.96-281.87c21.79-5.84,44.18,7.09,50.02,28.88l42.28,157.79c2.8,10.46,1.34,21.61-4.08,30.99-5.41,9.38-14.34,16.23-24.8,19.03l-523.36,140.23c-3.54.95-7.1,1.4-10.6,1.4Z"/>
      </g>
    </g>
    <g id="g1425">
      <g id="path1427">
        <path d="m1351.23,1697H425.52c-67.56,0-122.52-54.96-122.52-122.52v-653.44c0-67.56,54.96-122.52,122.52-122.52h925.71c67.56,0,122.52,54.96,122.52,122.52v653.44c0,67.56-54.96,122.52-122.52,122.52ZM425.52,880.2c-22.52,0-40.84,18.32-40.84,40.84v653.44c0,22.52,18.32,40.84,40.84,40.84h925.71c22.52,0,40.84-18.32,40.84-40.84v-653.44c0-22.52-18.32-40.84-40.84-40.84H425.52Z"/>
      </g>
    </g>
    <g id="path1429">
      <path d="m779.47,1206.92h-272.27c-22.56,0-40.84-18.28-40.84-40.84v-163.36c0-22.56,18.28-40.84,40.84-40.84h272.27c22.56,0,40.84,18.28,40.84,40.84v163.36c0,22.56-18.28,40.84-40.84,40.84Zm-231.43-81.68h190.59v-81.68h-190.59v81.68Z"/>
    </g>
    <g id="g1431">
      <g id="path1433">
        <path d="m1269.55,1043.56h-136.13c-22.56,0-40.84-18.28-40.84-40.84s18.28-40.84,40.84-40.84h136.13c22.56,0,40.84,18.28,40.84,40.84s-18.28,40.84-40.84,40.84Z"/>
      </g>
    </g>
    <g id="g1435">
      <g id="path1437">
        <path d="m1269.55,1206.92h-136.13c-22.56,0-40.84-18.28-40.84-40.84s18.28-40.84,40.84-40.84h136.13c22.56,0,40.84,18.28,40.84,40.84s-18.28,40.84-40.84,40.84Z"/>
      </g>
    </g>
    <g id="g1439">
      <g id="path1441">
        <path d="m779.47,1533.64h-272.27c-22.56,0-40.84-18.28-40.84-40.84s18.28-40.84,40.84-40.84h272.27c22.56,0,40.84,18.28,40.84,40.84s-18.28,40.84-40.84,40.84Z"/>
      </g>
    </g>
    <g id="g1443">
      <g id="path1445">
        <path d="m588.88,1370.28h-81.68c-22.56,0-40.84-18.28-40.84-40.84s18.28-40.84,40.84-40.84h81.68c22.56,0,40.84,18.28,40.84,40.84s-18.28,40.84-40.84,40.84Z"/>
      </g>
    </g>
    <g id="g1447">
      <g id="path1449">
        <path d="m833.92,1370.28h-81.68c-22.56,0-40.84-18.28-40.84-40.84s18.28-40.84,40.84-40.84h81.68c22.55,0,40.84,18.28,40.84,40.84s-18.28,40.84-40.84,40.84Z"/>
      </g>
    </g>
    <g id="g1451">
      <g id="path1453">
        <path d="m1078.96,1370.28h-81.68c-22.56,0-40.84-18.28-40.84-40.84s18.28-40.84,40.84-40.84h81.68c22.56,0,40.84,18.28,40.84,40.84s-18.28,40.84-40.84,40.84Z"/>
      </g>
    </g>
  </g>
</svg>