<?xml version="1.0" encoding="UTF-8"?>
<svg id="Layer_1" data-name="Layer 1" xmlns="http://www.w3.org/2000/svg" viewBox="0 0 2000 2000">
  <g id="g736">
    <g id="g742">
      <g id="path744">
        <path d="m1408.38,553.5c-5.2,0-10.48-1-15.58-3.11l-392.8-162.36-392.8,162.36c-20.84,8.62-44.73-1.3-53.34-22.14-8.62-20.84,1.3-44.73,22.14-53.34l408.4-168.8c9.99-4.13,21.21-4.13,31.2,0l408.4,168.8c20.84,8.62,30.76,32.5,22.14,53.34-6.51,15.74-21.72,25.25-37.76,25.25Z"/>
      </g>
    </g>
  </g>
  <g id="g718">
    <g id="path724">
      <path d="m1656.16,1697H343.84c-22.55,0-40.84-18.28-40.84-40.84V512.64c0-22.56,18.29-40.84,40.84-40.84h1312.32c22.56,0,40.84,18.28,40.84,40.84v1143.52c0,22.56-18.28,40.84-40.84,40.84Zm-1271.48-81.68h1230.64V553.48H384.68v1061.84Z"/>
    </g>
  </g>
  <g id="path726">
    <path d="m754.96,961.88h-245.04c-22.56,0-40.84-18.28-40.84-40.84v-245.04c0-22.56,18.28-40.84,40.84-40.84h245.04c22.56,0,40.84,18.28,40.84,40.84v245.04c0,22.56-18.28,40.84-40.84,40.84Zm-204.2-81.68h163.36v-163.36h-163.36v163.36Z"/>
  </g>
  <g id="g728">
    <g id="path730">
      <path d="m918.32,1125.24h-245.04c-22.56,0-40.84-18.28-40.84-40.84v-163.36c0-22.56,18.28-40.84,40.84-40.84s40.84,18.28,40.84,40.84v122.52h163.36v-163.36h-122.52c-22.56,0-40.84-18.28-40.84-40.84s18.28-40.84,40.84-40.84h163.36c22.56,0,40.84,18.28,40.84,40.84v245.04c0,22.56-18.28,40.84-40.84,40.84Z"/>
    </g>
  </g>
  <g id="path732">
    <path d="m918.32,1533.64h-408.4c-22.56,0-40.84-18.28-40.84-40.84v-245.04c0-22.56,18.28-40.84,40.84-40.84h408.4c22.56,0,40.84,18.28,40.84,40.84v245.04c0,22.56-18.28,40.84-40.84,40.84Zm-367.56-81.68h326.72v-163.36h-326.72v163.36Z"/>
  </g>
  <g id="path746">
    <path d="m1490.08,1533.64h-408.4c-22.56,0-40.84-18.28-40.84-40.84v-490.08c0-22.56,18.28-40.84,40.84-40.84h408.4c22.56,0,40.84,18.28,40.84,40.84v490.08c0,22.56-18.28,40.84-40.84,40.84Zm-367.56-81.68h326.72v-408.4h-326.72v408.4Z"/>
  </g>
  <g id="path748">
    <path d="m1490.08,880.2h-408.4c-22.56,0-40.84-18.28-40.84-40.84v-163.36c0-22.56,18.28-40.84,40.84-40.84h408.4c22.56,0,40.84,18.28,40.84,40.84v163.36c0,22.56-18.28,40.84-40.84,40.84Zm-367.56-81.68h326.72v-81.68h-326.72v81.68Z"/>
  </g>
  <g id="g750">
    <g id="path752">
      <path d="m1326.72,1206.92h-81.68c-22.56,0-40.84-18.28-40.84-40.84s18.28-40.84,40.84-40.84h81.68c22.56,0,40.84,18.28,40.84,40.84s-18.28,40.84-40.84,40.84Z"/>
    </g>
  </g>
  <g id="g754">
    <g id="path756">
      <path d="m1326.72,1370.28h-81.68c-22.56,0-40.84-18.28-40.84-40.84s18.28-40.84,40.84-40.84h81.68c22.56,0,40.84,18.28,40.84,40.84s-18.28,40.84-40.84,40.84Z"/>
    </g>
  </g>
</svg>