<?xml version="1.0" encoding="UTF-8"?>
<svg id="Layer_1" data-name="Layer 1" xmlns="http://www.w3.org/2000/svg" viewBox="0 0 2000 2000">
  <path d="m1702.36,1433.59l-131.49-745.69c-9.06-51.36-43.28-93.79-91.56-113.51l-313.75-128.16c-13.51-5.52-27.59-8.93-41.77-10.34l-16.94-96.07c-3.95-22.39-25.28-37.33-47.68-33.39-22.39,3.95-37.34,25.3-33.39,47.68l16.94,96.08c-12.66,6.09-24.55,13.98-35.23,23.6l-35.54,32.01-5.27-4.78c-10.81-9.81-22.87-17.83-35.72-24.01l21.67-122.9c3.95-22.39-11-43.74-33.39-47.68-22.38-3.96-43.74,11-47.68,33.39l-21.67,122.91c-13.98,1.39-27.85,4.74-41.18,10.13l-316.58,127.94c-48.56,19.63-82.99,62.14-92.09,113.73l-98.08,556.25c-14.45,81.96,40.47,160.39,122.43,174.84l400.87,70.68,12.3,69.78c12.89,73.13,76.73,124.74,148.56,124.74,8.67,0,17.46-.75,26.28-2.31l567.52-100.07c81.95-14.45,136.88-92.89,122.43-174.85h0Zm-136.72,93.77l-567.52,100.07c-18.05,3.18-36.25-.85-51.26-11.37-15.01-10.51-25.03-26.24-28.21-44.29l-7.1-40.27,80.37,14.17c8.86,1.56,17.72,2.33,26.53,2.33,30.68,0,60.59-9.37,86.25-27.33,33.03-23.12,55.07-57.72,62.07-97.42l98.13-556.51c9.06-51.36-8.6-102.94-47.22-137.98l-184.45-167.36,29.35-26.43c12.78-11.5,29.34-17.57,46.06-17.57,8.72,0,17.49,1.65,25.79,5.04l313.75,128.16c21.95,8.97,37.5,28.25,41.62,51.6l131.49,745.68c6.57,37.25-18.39,72.91-55.65,79.48h0Zm-1182.59-242.29l98.08-556.25c4.14-23.45,19.78-42.77,41.86-51.69l311.28-125.8-8.92,50.6c-3.95,22.39,11,43.74,33.39,47.68,2.42.43,4.82.63,7.2.63,19.6,0,36.97-14.05,40.49-34.02l8.93-50.62,247.01,224.13c17.55,15.93,25.58,39.37,21.46,62.72l-98.13,556.51c-3.18,18.05-13.2,33.77-28.21,44.28-15.01,10.51-33.22,14.55-51.26,11.37l-567.52-100.07c-37.25-6.57-62.22-42.22-55.65-79.48Z"/>
  <path d="m715.32,1265.09l-6.57,37.27c-2.63,14.93,7.34,29.16,22.26,31.79,1.61.29,3.21.42,4.8.42,13.06,0,24.65-9.37,26.99-22.68l6.94-39.33c28.2-.09,55.12-7.93,79-23.19,28.43-18.17,50.32-45.72,61.63-77.58,23.02-64.86-1.72-129.15-63.04-163.8-10.13-5.72-19.45-11.14-28.07-16.31l27.42-155.49c19.27,7.1,30.36,18.79,37.75,26.59,2.1,2.22,4.09,4.32,6.12,6.2,11.13,10.29,28.49,9.6,38.78-1.52,10.29-11.13,9.61-28.49-1.52-38.78-.69-.64-2.13-2.16-3.52-3.63-9.95-10.51-30.75-32.47-67.99-43.41l5.67-32.15c2.63-14.93-7.34-29.16-22.26-31.79-14.93-2.63-29.16,7.33-31.79,22.26l-6.24,35.37c-5.65.21-11.5.63-17.61,1.36-45.18,5.36-83.72,36.46-100.59,81.17-15.33,40.64-9.09,83.47,16.29,111.77,14.17,15.79,32.67,31.22,59.03,48.83l-33.95,192.56c-26.73-6.16-43.02-14.79-69.16-39.32-11.05-10.37-28.42-9.83-38.79,1.22-10.37,11.05-9.83,28.42,1.22,38.79,35.57,33.39,61.37,45.39,97.19,53.37h0Zm143.32-111.66c-10.71,30.17-38.96,59.34-79.13,63.67l29.58-167.74c3.64,2.1,7.39,4.24,11.24,6.41,56.41,31.87,43.59,82.8,38.32,97.66h0Zm-118.02-220.44c-11.65-12.99-13.87-34.35-5.8-55.75,7.53-19.96,26.12-42.53,55.7-46.04.45-.05.88-.09,1.32-.14l-22.5,127.62c-12.01-9.1-21.39-17.52-28.72-25.69Z"/>
</svg>