<?xml version="1.0" encoding="UTF-8"?>
<svg id="Layer_1" data-name="Layer 1" xmlns="http://www.w3.org/2000/svg" viewBox="0 0 2000 2000">
  <path d="m1244.58,388.48c-56.84,0-104.74,38.98-118.39,91.61l-458.92,152.97h-237.97c-67.43,0-122.29,54.86-122.29,122.3v244.59c0,67.43,54.86,122.29,122.29,122.29h1.61l41.82,391c5.75,53.52,71.52,114.09,149.3,94.53,64.29-16.06,103.96-80.62,89.77-144.97l-8.88-96.1c.85.05,1.7.13,2.56.13h49.93c67.43,0,122.29-54.86,122.29-122.29v-52.15l248.49,82.83c13.65,52.63,61.55,91.61,118.39,91.61,67.43,0,122.29-54.86,122.29-122.29V510.77c0-67.43-54.86-122.3-122.29-122.3Zm-642.39,1140.21c-20.84,5.24-42.3-6.71-48.76-27.42l-40.53-379.03h85.56c34.66,375.32,32.33,352.49,33.44,356.96,5.45,21.83-7.85,44.02-29.71,49.48Zm30.92-487.98h-203.82c-22.48,0-40.77-18.29-40.77-40.77v-244.59c0-22.48,18.29-40.77,40.77-40.77h203.82v326.12Zm163.06,203.82c0,22.48-18.29,40.77-40.77,40.77h-49.93c-3.44,0-6.77.47-9.96,1.28l-14.76-159.84,115.42,38.47v79.32Zm326.12-56.56l-407.64-135.88v-348.88l407.64-135.88v620.65Zm163.06,56.56c0,22.48-18.29,40.77-40.77,40.77s-40.77-18.29-40.77-40.77V510.77c0-22.48,18.29-40.77,40.77-40.77s40.77,18.29,40.77,40.77v733.76Z"/>
  <path d="m1652.22,796.12h-163.06c-22.51,0-40.77,18.25-40.77,40.77s18.25,40.77,40.77,40.77h163.06c22.51,0,40.77-18.25,40.77-40.77,0-22.51-18.25-40.77-40.77-40.77Z"/>
  <path d="m1688.69,574.07c-10.07-20.14-34.56-28.3-54.69-18.23l-163.06,81.53c-20.14,10.07-28.3,34.56-18.23,54.69,10.08,20.15,34.57,28.3,54.69,18.23l163.06-81.53c20.14-10.07,28.3-34.56,18.23-54.69Z"/>
  <path d="m1670.46,1045.01l-163.06-81.53c-20.13-10.07-44.62-1.91-54.69,18.23-10.07,20.14-1.91,44.62,18.23,54.69l163.06,81.53c20.14,10.07,44.63,1.9,54.69-18.23,10.07-20.14,1.91-44.62-18.23-54.69Z"/>
</svg>