<?xml version="1.0" encoding="UTF-8"?>
<svg id="Layer_1" data-name="Layer 1" xmlns="http://www.w3.org/2000/svg" viewBox="0 0 2000 2000">
  <path d="m1658.04,1699H341.96c-22.62,0-40.96-18.34-40.96-40.96V341.96c0-22.62,18.34-40.96,40.96-40.96h412.3c16.97,0,32.19,10.47,38.25,26.32l52.59,137.5h812.94c22.62,0,40.96,18.34,40.96,40.96v1152.26c0,22.62-18.34,40.96-40.96,40.96Zm-1275.13-81.91h1234.17V546.74h-580.2c-7.89,39.07-27.06,74.99-55.88,103.84-38.73,38.69-90.16,59.98-144.83,59.98h-453.26v906.52Zm0-988.43h453.26c32.81,0,63.68-12.78,86.91-35.99,13.17-13.18,22.99-28.84,29-45.92h-135.16c-16.97,0-32.19-10.47-38.25-26.32l-52.59-137.5h-343.16v245.74Z"/>
  <path d="m1000,1532.44c-203.25,0-368.61-165.36-368.61-368.61s165.36-368.61,368.61-368.61,368.61,165.36,368.61,368.61-165.36,368.61-368.61,368.61Zm0-655.31c-158.08,0-286.7,128.61-286.7,286.7s128.61,286.7,286.7,286.7,286.7-128.61,286.7-286.7-128.61-286.7-286.7-286.7Z"/>
  <path d="m1000,1532.44c-60.11,0-114.3-42.12-152.57-118.6-33.76-67.47-52.35-156.26-52.35-250.02s18.59-182.55,52.35-250.02c38.27-76.48,92.45-118.6,152.57-118.6s114.3,42.12,152.57,118.6c33.76,67.47,52.35,156.26,52.35,250.02s-18.59,182.55-52.35,250.02c-38.27,76.48-92.45,118.6-152.57,118.6Zm0-655.31c-58.07,0-123.01,122.61-123.01,286.7s64.94,286.7,123.01,286.7,123.01-122.61,123.01-286.7-64.94-286.7-123.01-286.7Z"/>
  <path d="m1000,1532.44c-22.62,0-40.96-18.34-40.96-40.96v-655.31c0-22.62,18.34-40.96,40.96-40.96s40.96,18.34,40.96,40.96v655.31c0,22.62-18.34,40.96-40.96,40.96Z"/>
  <path d="m1317.33,1286.7h-634.67c-22.62,0-40.96-18.34-40.96-40.96s18.34-40.96,40.96-40.96h634.67c22.62,0,40.96,18.34,40.96,40.96s-18.34,40.96-40.96,40.96Z"/>
  <path d="m1317.33,1122.87h-634.67c-22.62,0-40.96-18.34-40.96-40.96s18.34-40.96,40.96-40.96h634.67c22.62,0,40.96,18.34,40.96,40.96s-18.34,40.96-40.96,40.96Z"/>
</svg>