<?xml version="1.0" encoding="UTF-8"?>
<svg id="Layer_1" data-name="Layer 1" xmlns="http://www.w3.org/2000/svg" viewBox="0 0 2000 2000">
  <path d="m1688.03,1574.47l-112.71-112.71c68.38-4.02,122.78-60.9,122.78-130.27v-712.67c0-71.97-58.55-130.52-130.52-130.52h-965.72l-177.52-177.52c-15.96-15.96-41.85-15.96-57.81,0-15.96,15.96-15.96,41.85,0,57.81l119.71,119.71h-55.72c-71.97,0-130.52,58.55-130.52,130.52v712.67c0,71.97,58.55,130.52,130.52,130.52h196.68v165.26c0,29.26,16.53,54.98,43.15,67.13,9.99,4.56,20.48,6.79,30.87,6.79,17.3,0,34.3-6.2,48.11-18.17l254.82-221h455.8l170.27,170.27c7.98,7.98,18.44,11.97,28.9,11.97s20.92-3.99,28.9-11.97c15.97-15.97,15.97-41.85,0-57.82Zm-725.91-184.22l-253.16,219.55v-188.67c0-22.58-18.3-40.88-40.88-40.88h-237.55c-26.89,0-48.77-21.88-48.77-48.77v-712.66c0-26.89,21.88-48.77,48.77-48.77h137.47l810.19,810.19h-389.3c-9.84,0-19.35,3.55-26.78,10h0Zm654.23-771.43v712.67c0,26.89-21.88,48.77-48.77,48.77h-73.77l-810.19-810.2h883.96c26.89,0,48.77,21.88,48.77,48.77h0Z"/>
</svg>