<?xml version="1.0" encoding="UTF-8"?>
<svg id="Layer_1" data-name="Layer 1" xmlns="http://www.w3.org/2000/svg" viewBox="0 0 2000 2000">
  <path d="m1010,1681.25c-186.51,0-361.86-72.63-493.74-204.51-131.88-131.88-204.51-307.23-204.51-493.74s72.63-361.86,204.51-493.74,307.23-204.51,493.74-204.51,361.86,72.63,493.74,204.51,204.51,307.23,204.51,493.74-72.63,361.86-204.51,493.74c-131.88,131.88-307.23,204.51-493.74,204.51Zm0-1314.67c-339.9,0-616.42,276.53-616.42,616.42s276.53,616.42,616.42,616.42,616.42-276.53,616.42-616.42-276.53-616.42-616.42-616.42Z"/>
  <path d="m1010,1111.56c-70.89,0-128.56-57.67-128.56-128.56s57.67-128.56,128.56-128.56,128.56,57.67,128.56,128.56-57.67,128.56-128.56,128.56Zm0-175.29c-25.77,0-46.73,20.96-46.73,46.73s20.96,46.73,46.73,46.73,46.73-20.96,46.73-46.73-20.96-46.73-46.73-46.73Z"/>
  <path d="m1244.33,904.55c-14.88,0-29.23-8.15-36.47-22.31-21.18-41.45-55.66-75.93-97.1-97.11-20.1-10.27-28.09-34.89-17.84-55.01l179.07-351.43c4.93-9.68,13.5-16.99,23.83-20.34s21.57-2.46,31.24,2.49c130.21,66.54,238.57,174.89,305.1,305.09,4.94,9.67,5.84,20.91,2.49,31.24-3.35,10.33-10.67,18.9-20.34,23.83l-351.44,179.08c-5.95,3.03-12.29,4.47-18.54,4.47Zm-61.22-171.19c29.74,20.74,55.79,46.78,76.52,76.53l279.79-142.57c-52.33-87.28-126.46-161.41-213.75-213.74l-142.56,279.79Z"/>
  <path d="m711.55,1609.64c-6.41,0-12.8-1.51-18.62-4.48-130.21-66.54-238.57-174.89-305.1-305.09-4.94-9.67-5.84-20.91-2.49-31.24,3.35-10.33,10.67-18.9,20.34-23.83l351.44-179.08c20.12-10.25,44.73-2.27,55.01,17.84,21.18,41.45,55.66,75.93,97.1,97.11,20.1,10.27,28.09,34.89,17.84,55.01l-179.07,351.43c-4.93,9.68-13.5,16.99-23.83,20.34-4.11,1.33-8.37,2-12.62,2Zm-230.98-310.96c52.33,87.28,126.46,161.41,213.75,213.74l142.56-279.79c-29.74-20.74-55.79-46.79-76.52-76.53l-279.79,142.57Z"/>
  <path d="m1010,1286.85c-167.54,0-303.85-136.31-303.85-303.85s136.31-303.85,303.85-303.85,303.85,136.31,303.85,303.85-136.31,303.85-303.85,303.85Zm0-525.87c-122.42,0-222.02,99.6-222.02,222.02s99.6,222.02,222.02,222.02,222.02-99.6,222.02-222.02-99.6-222.02-222.02-222.02Z"/>
</svg>