<?xml version="1.0" encoding="UTF-8"?>
<svg id="Layer_1" data-name="Layer 1" xmlns="http://www.w3.org/2000/svg" viewBox="0 0 2000 2000">
  <path d="m1654.75,467.51h-210.58c-18.93-92.89-101.26-163.01-199.66-163.01s-180.73,70.12-199.66,163.01H345.25c-22.51,0-40.75,18.25-40.75,40.75s18.25,40.75,40.75,40.75h699.6c18.93,92.89,101.26,163.01,199.66,163.01s180.73-70.12,199.66-163.01h210.58c22.51,0,40.75-18.25,40.75-40.75s-18.25-40.75-40.75-40.75Zm-410.24,163.01c-67.4,0-122.24-54.82-122.26-122.22,0-.01,0-.02,0-.04s0-.02,0-.04c.02-67.4,54.85-122.22,122.26-122.22s122.26,54.84,122.26,122.26-54.84,122.26-122.26,122.26Z"/>
  <path d="m1654.75,959.25h-699.6c-18.93-92.89-101.26-163.01-199.66-163.01s-180.73,70.12-199.66,163.01h-210.58c-22.51,0-40.75,18.25-40.75,40.75s18.25,40.75,40.75,40.75h210.58c18.93,92.89,101.26,163.01,199.66,163.01s180.73-70.12,199.66-163.01h699.6c22.51,0,40.75-18.25,40.75-40.75s-18.25-40.75-40.75-40.75Zm-899.26,163.01c-67.4,0-122.24-54.82-122.26-122.22,0-.01,0-.02,0-.04s0-.02,0-.04c.02-67.4,54.85-122.22,122.26-122.22s122.26,54.84,122.26,122.26-54.84,122.26-122.26,122.26Z"/>
  <path d="m1654.75,1450.99h-210.58c-18.93-92.89-101.26-163.01-199.66-163.01s-180.73,70.12-199.66,163.01H345.25c-22.51,0-40.75,18.25-40.75,40.75s18.25,40.75,40.75,40.75h699.6c18.93,92.89,101.26,163.01,199.66,163.01s180.73-70.12,199.66-163.01h210.58c22.51,0,40.75-18.25,40.75-40.75s-18.25-40.75-40.75-40.75Zm-410.24,163.01c-67.4,0-122.24-54.82-122.26-122.22,0-.01,0-.02,0-.04s0-.02,0-.04c.02-67.4,54.85-122.22,122.26-122.22s122.26,54.84,122.26,122.26-54.84,122.26-122.26,122.26Z"/>
</svg>