<?xml version="1.0" encoding="UTF-8"?>
<svg id="Layer_2" data-name="Layer 2" xmlns="http://www.w3.org/2000/svg" viewBox="0 0 2000 2000">
  <g id="g455">
    <g id="g461">
      <g id="path463">
        <path d="m1518.55,1600.44h-17.52c-10.58,0-19.16-8.58-19.16-19.16s8.58-19.16,19.16-19.16h17.52c72.31,0,131.13-58.84,131.13-131.16V481.46c0-72.31-58.83-131.13-131.13-131.13H481.45c-72.31,0-131.13,58.83-131.13,131.13v949.5c0,72.32,58.83,131.16,131.13,131.16h322.96c10.58,0,19.16,8.58,19.16,19.16s-8.58,19.16-19.16,19.16h-322.96c-93.44,0-169.46-76.03-169.46-169.49V481.46c0-93.44,76.02-169.46,169.46-169.46h1037.11c93.44,0,169.46,76.02,169.46,169.46v949.5c0,93.46-76.02,169.49-169.46,169.49Z"/>
      </g>
    </g>
    <g id="g465">
      <g id="path467">
        <path d="m1069.47,1600.44h-98.59c-10.58,0-19.16-8.58-19.16-19.16s8.58-19.16,19.16-19.16h98.59c10.58,0,19.16,8.58,19.16,19.16s-8.58,19.16-19.16,19.16Z"/>
      </g>
    </g>
    <g id="g469">
      <g id="path471">
        <path d="m1334.56,1519.7h-98.62c-10.58,0-19.16-8.58-19.16-19.16s8.58-19.16,19.16-19.16h98.62c10.58,0,19.16,8.58,19.16,19.16s-8.58,19.16-19.16,19.16Z"/>
      </g>
    </g>
    <g id="g473">
      <g id="path475">
        <path d="m1518.55,1519.7h-17.52c-10.58,0-19.16-8.58-19.16-19.16s8.58-19.16,19.16-19.16h17.52c27.78,0,50.39-22.6,50.39-50.39v-773.01c0-36.39-29.61-66-66-66H497.06c-36.39,0-66,29.61-66,66v773.01c0,27.78,22.6,50.39,50.39,50.39h322.96c10.58,0,19.16,8.58,19.16,19.16s-8.58,19.16-19.16,19.16h-322.96c-48.92,0-88.71-39.8-88.71-88.71v-773.01c0-57.52,46.8-104.32,104.33-104.32h1005.88c57.52,0,104.32,46.8,104.32,104.32v773.01c0,48.92-39.8,88.71-88.71,88.71Z"/>
      </g>
    </g>
    <g id="g477">
      <g id="path479">
        <path d="m1069.47,1519.7h-98.59c-10.58,0-19.16-8.58-19.16-19.16s8.58-19.16,19.16-19.16h98.59c10.58,0,19.16,8.58,19.16,19.16s-8.58,19.16-19.16,19.16Z"/>
      </g>
    </g>
    <g id="g481">
      <g id="path483">
        <path d="m461.13,523.06c-37.71,0-68.39-30.68-68.39-68.39s30.68-68.39,68.39-68.39,68.39,30.68,68.39,68.39-30.68,68.39-68.39,68.39Zm0-98.46c-16.58,0-30.06,13.49-30.06,30.06s13.49,30.06,30.06,30.06,30.06-13.49,30.06-30.06-13.49-30.06-30.06-30.06Z"/>
      </g>
    </g>
    <g id="g485">
      <g id="path487">
        <path d="m617.63,523.06c-37.71,0-68.39-30.68-68.39-68.39s30.68-68.39,68.39-68.39,68.39,30.68,68.39,68.39-30.68,68.39-68.39,68.39Zm0-98.46c-16.58,0-30.06,13.49-30.06,30.06s13.49,30.06,30.06,30.06,30.06-13.49,30.06-30.06-13.49-30.06-30.06-30.06Z"/>
      </g>
    </g>
    <g id="g489">
      <g id="path491">
        <path d="m774.14,523.06c-37.71,0-68.39-30.68-68.39-68.39s30.68-68.39,68.39-68.39,68.39,30.68,68.39,68.39-30.68,68.39-68.39,68.39Zm0-98.46c-16.58,0-30.06,13.49-30.06,30.06s13.49,30.06,30.06,30.06,30.06-13.49,30.06-30.06-13.49-30.06-30.06-30.06Z"/>
      </g>
    </g>
    <g id="g493">
      <g id="path495">
        <path d="m1060.13,1232.16h-485.04c-49.08,0-89.01-39.93-89.01-89.01v-392.8c0-49.1,39.93-89.04,89.01-89.04h61.13c10.58,0,19.16,8.58,19.16,19.16s-8.58,19.16-19.16,19.16h-61.13c-27.95,0-50.68,22.75-50.68,50.71v392.8c0,27.95,22.74,50.68,50.68,50.68h485.04c11,0,21.46-3.47,30.26-10.03,8.48-6.33,20.49-4.58,26.82,3.9,6.33,8.48,4.58,20.49-3.9,26.82-15.47,11.54-33.86,17.64-53.18,17.64Z"/>
      </g>
    </g>
    <g id="g497">
      <g id="path499">
        <path d="m1129.97,1077.02c-10.58,0-19.16-8.58-19.16-19.16v-307.51c0-27.96-22.74-50.71-50.68-50.71h-343.17c-10.58,0-19.16-8.58-19.16-19.16s8.58-19.16,19.16-19.16h343.17c49.08,0,89.01,39.94,89.01,89.04v307.51c0,10.58-8.58,19.16-19.16,19.16Z"/>
      </g>
    </g>
    <g id="g501">
      <g id="path503">
        <path d="m1129.97,833.96H505.24c-10.58,0-19.16-8.58-19.16-19.16s8.58-19.16,19.16-19.16h624.73c10.58,0,19.16,8.58,19.16,19.16s-8.58,19.16-19.16,19.16Z"/>
      </g>
    </g>
    <g id="g505">
      <g id="path507">
        <path d="m1129.97,965.9H505.24c-10.58,0-19.16-8.58-19.16-19.16s8.58-19.16,19.16-19.16h624.73c10.58,0,19.16,8.58,19.16,19.16s-8.58,19.16-19.16,19.16Z"/>
      </g>
    </g>
    <g id="g509">
      <g id="path511">
        <path d="m1051.81,1097.82H505.24c-10.58,0-19.16-8.58-19.16-19.16s8.58-19.16,19.16-19.16h546.57c10.58,0,19.16,8.58,19.16,19.16s-8.58,19.16-19.16,19.16Z"/>
      </g>
    </g>
    <g id="g513">
      <g id="path515">
        <path d="m972.73,1232.15c-10.58,0-19.16-8.58-19.16-19.16v-532.51c0-10.58,8.58-19.16,19.16-19.16s19.16,8.58,19.16,19.16v532.51c0,10.58-8.58,19.16-19.16,19.16Z"/>
      </g>
    </g>
    <g id="g517">
      <g id="path519">
        <path d="m970.87,1688h-166.47c-10.58,0-19.16-8.58-19.16-19.16v-327.36c0-35.74,29.07-64.81,64.81-64.81h75.18c35.74,0,64.81,29.07,64.81,64.81v327.36c0,10.58-8.58,19.16-19.16,19.16Zm-147.31-38.33h128.14v-308.19c0-14.6-11.88-26.48-26.48-26.48h-75.18c-14.6,0-26.48,11.88-26.48,26.48v308.19Z"/>
      </g>
    </g>
    <g id="g521">
      <g id="path523">
        <path d="m1235.95,1688h-166.47c-10.58,0-19.16-8.58-19.16-19.16v-246c0-35.74,29.07-64.81,64.81-64.81h75.18c35.74,0,64.81,29.07,64.81,64.81v246c0,10.58-8.58,19.16-19.16,19.16Zm-147.31-38.33h128.14v-226.83c0-14.6-11.88-26.48-26.48-26.48h-75.18c-14.6,0-26.48,11.88-26.48,26.48v226.83Z"/>
      </g>
    </g>
    <g id="g525">
      <g id="path527">
        <path d="m1501.03,1688h-166.47c-10.58,0-19.16-8.58-19.16-19.16v-436.89c0-35.74,29.07-64.81,64.81-64.81h75.18c35.74,0,64.81,29.07,64.81,64.81v73.24c0,10.58-8.58,19.16-19.16,19.16s-19.16-8.58-19.16-19.16v-73.24c0-14.6-11.88-26.48-26.48-26.48h-75.18c-14.6,0-26.48,11.88-26.48,26.48v417.73h128.15v-263.74c0-10.58,8.58-19.16,19.16-19.16s19.16,8.58,19.16,19.16v282.91c0,10.58-8.58,19.16-19.16,19.16Z"/>
      </g>
    </g>
    <g id="g529">
      <g id="path531">
        <path d="m1588.1,1688h-834.92c-10.58,0-19.16-8.58-19.16-19.16s8.58-19.16,19.16-19.16h834.92c10.58,0,19.16,8.58,19.16,19.16s-8.58,19.16-19.16,19.16Z"/>
      </g>
    </g>
    <g id="g545">
      <g id="path547">
        <path d="m1154.13,1302.17c-18.48,0-34.7-10.76-41.9-28.09l-80.37-193.47c-7.1-17.1-3.23-36.6,9.86-49.69,13.09-13.09,32.6-16.96,49.69-9.86l193.47,80.37s0,0,0,0c18.36,7.63,29.34,25.37,27.97,45.2-1.36,19.83-14.67,35.9-33.89,40.95l-59.76,15.67c-2.52.66-4.5,2.64-5.16,5.16l-15.67,59.76c-5.04,19.23-21.12,32.53-40.95,33.89-1.11.08-2.21.11-3.3.11Zm-80.34-246.33c-2.35,0-4.03,1.26-4.96,2.18-1.28,1.28-3.18,4-1.56,7.89l80.37,193.47c1.73,4.17,5.23,4.57,7.18,4.44,1.94-.13,5.35-1.01,6.5-5.38l15.67-59.76c4.17-15.88,16.62-28.34,32.5-32.51l59.76-15.67c4.37-1.15,5.25-4.56,5.38-6.5.13-1.94-.27-5.44-4.44-7.18l-193.47-80.37c-1.06-.44-2.04-.62-2.93-.62Z"/>
      </g>
    </g>
  </g>
</svg>