<?xml version="1.0" encoding="UTF-8"?>
<svg id="Layer_1" data-name="Layer 1" xmlns="http://www.w3.org/2000/svg" viewBox="0 0 2000 2000">
  <g>
    <path d="m1236.55,923.44h-473.1c-22.65,0-41.02-18.36-41.02-41.02v-91.15c0-106.13,62.47-203.09,159.14-247.02,20.63-9.37,44.94-.25,54.31,20.37,9.37,20.62.25,44.94-20.37,54.31-67.46,30.66-111.05,98.31-111.05,172.34v50.14h391.07v-50.14c0-74.04-43.59-141.68-111.05-172.34-20.62-9.37-29.74-33.69-20.37-54.31,9.37-20.62,33.68-29.74,54.31-20.37,96.68,43.93,159.14,140.9,159.14,247.02v91.16c0,22.65-18.36,41.02-41.02,41.02Z"/>
    <path d="m1000,647.68c-95.86,0-173.84-77.98-173.84-173.84s77.98-173.84,173.84-173.84,173.84,77.98,173.84,173.84-77.98,173.84-173.84,173.84Zm0-265.64c-50.62,0-91.81,41.18-91.81,91.81s41.18,91.81,91.81,91.81,91.81-41.18,91.81-91.81-41.18-91.81-91.81-91.81Z"/>
    <path d="m1001.27,769.11c-22.65,0-41.02-18.36-41.02-41.02v-103.73c0-22.65,18.36-41.02,41.02-41.02s41.02,18.36,41.02,41.02v103.73c0,22.65-18.36,41.02-41.02,41.02Z"/>
  </g>
  <path d="m1165.54,1700h-331.09c-57.98,0-105.16-47.17-105.16-105.16v-320.15c0-57.99,47.17-105.16,105.16-105.16h331.09c57.99,0,105.16,47.17,105.16,105.16v320.15c0,57.99-47.17,105.16-105.16,105.16Zm-331.09-448.44c-12.75,0-23.13,10.38-23.13,23.13v320.15c0,12.75,10.38,23.13,23.13,23.13h331.09c12.75,0,23.13-10.38,23.13-23.13v-320.15c0-12.75-10.38-23.13-23.13-23.13h-331.09Z"/>
  <path d="m1594.84,1700h-136.95c-57.99,0-105.16-47.17-105.16-105.16v-320.15c0-57.99,47.17-105.16,105.16-105.16h136.95c57.99,0,105.16,47.17,105.16,105.16v320.15c0,57.99-47.17,105.16-105.16,105.16Zm-136.95-448.44c-12.75,0-23.13,10.38-23.13,23.13v320.15c0,12.75,10.38,23.13,23.13,23.13h136.95c12.75,0,23.13-10.38,23.13-23.13v-320.15c0-12.75-10.38-23.13-23.13-23.13h-136.95Z"/>
  <path d="m542.11,1700h-136.95c-57.99,0-105.16-47.17-105.16-105.16v-320.15c0-57.99,47.17-105.16,105.16-105.16h136.95c57.99,0,105.16,47.17,105.16,105.16v320.15c0,57.99-47.17,105.16-105.16,105.16Zm-136.95-448.44c-12.75,0-23.13,10.38-23.13,23.13v320.15c0,12.75,10.38,23.13,23.13,23.13h136.95c12.75,0,23.13-10.38,23.13-23.13v-320.15c0-12.75-10.38-23.13-23.13-23.13h-136.95Z"/>
  <path d="m1000,1251.56c-22.65,0-41.02-18.36-41.02-41.02v-328.13c0-22.65,18.36-41.02,41.02-41.02s41.02,18.36,41.02,41.02v328.13c0,22.65-18.36,41.02-41.02,41.02Z"/>
  <path d="m1526.37,1251.56c-22.65,0-41.02-18.36-41.02-41.02v-68.08c0-30.31-24.66-54.97-54.97-54.97h-859.4c-30.31,0-54.97,24.66-54.97,54.97v68.08c0,22.65-18.36,41.02-41.02,41.02s-41.02-18.36-41.02-41.02v-68.08c0-75.54,61.46-137,137-137h859.4c75.54,0,137,61.46,137,137v68.08c0,22.65-18.36,41.02-41.02,41.02Z"/>
</svg>