<?xml version="1.0" encoding="UTF-8"?>
<svg id="Layer_1" data-name="Layer 1" xmlns="http://www.w3.org/2000/svg" viewBox="0 0 2000 2000">
  <path d="m1310.16,1706h-620.32c-22.85,0-41.37-18.52-41.37-41.37s18.52-41.37,41.37-41.37h620.32c22.85,0,41.37,18.52,41.37,41.37s-18.52,41.37-41.37,41.37Z"/>
  <path d="m1177.24,1706h-354.47c-22.85,0-41.37-18.52-41.37-41.37v-265.85c0-22.85,18.52-41.37,41.37-41.37h354.47c22.85,0,41.37,18.52,41.37,41.37v265.85c0,22.85-18.52,41.37-41.37,41.37Zm-313.1-82.73h271.74v-183.12h-271.74v183.12Z"/>
  <path d="m1576.01,1440.15H423.98c-34.74,0-67.39-13.53-91.93-38.1-24.53-24.52-38.06-57.16-38.06-91.88v-708.94c0-34.72,13.52-67.36,38.08-91.91,24.51-24.55,57.16-38.08,91.91-38.08h269.04c22.85,0,41.37,18.52,41.37,41.37s-18.52,41.37-41.37,41.37h-269.04c-12.62,0-24.48,4.91-33.39,13.83-8.95,8.94-13.86,20.8-13.86,33.42v708.94c0,12.62,4.91,24.48,13.83,33.39,8.93,8.94,20.79,13.86,33.41,13.86h1152.03c12.63,0,24.49-4.91,33.39-13.83,8.95-8.95,13.86-20.8,13.86-33.42v-708.94c0-12.62-4.91-24.48-13.84-33.4-8.93-8.94-20.79-13.85-33.41-13.85h-269.03c-22.85,0-41.37-18.52-41.37-41.37s18.52-41.37,41.37-41.37h269.03c34.74,0,67.39,13.53,91.93,38.1,24.53,24.53,38.06,57.17,38.06,91.89v708.94c0,34.72-13.52,67.36-38.08,91.91-24.51,24.54-57.16,38.08-91.91,38.08Z"/>
  <path d="m1000,1246.52c-7.14,0-14.28-1.85-20.68-5.54l-376.63-217.44c-12.8-7.39-20.68-21.05-20.68-35.82v-434.89c0-14.78,7.88-28.44,20.68-35.82l376.63-217.44c12.8-7.39,28.57-7.39,41.37,0l376.63,217.44c12.8,7.39,20.68,21.05,20.68,35.82v434.89c0,14.78-7.88,28.44-20.68,35.82l-376.63,217.44c-6.4,3.7-13.54,5.54-20.68,5.54Zm-335.26-282.69l335.26,193.56,335.26-193.56v-387.13l-335.26-193.56-335.26,193.56v387.13Z"/>
  <path d="m1000,811.62c-7.14,0-14.28-1.85-20.68-5.54l-376.63-217.45c-19.79-11.42-26.56-36.72-15.14-56.51,11.42-19.79,36.72-26.57,56.51-15.14l355.94,205.5,355.94-205.5c19.79-11.43,45.09-4.64,56.51,15.14,11.42,19.79,4.64,45.09-15.14,56.51l-376.63,217.45c-6.4,3.7-13.54,5.54-20.68,5.54Z"/>
  <path d="m1000,1246.52c-22.85,0-41.37-18.52-41.37-41.37v-434.89c0-22.85,18.52-41.37,41.37-41.37s41.37,18.52,41.37,41.37v434.89c0,22.85-18.52,41.37-41.37,41.37Z"/>
</svg>