<?xml version="1.0" encoding="UTF-8"?>
<svg id="Layer_1" data-name="Layer 1" xmlns="http://www.w3.org/2000/svg" viewBox="0 0 2000 2000">
  <path d="m1579.57,296.82H420.43c-68.15,0-123.61,55.45-123.61,123.61v1159.15c0,68.15,55.45,123.61,123.61,123.61h1159.15c68.15,0,123.61-55.45,123.61-123.61V420.43c0-68.15-55.45-123.61-123.61-123.61Zm-1159.15,82.4h1159.15c22.71,0,41.2,18.49,41.2,41.2v206.01H379.23v-206.01c0-22.71,18.49-41.2,41.2-41.2Zm1159.15,1241.55H420.43c-22.71,0-41.2-18.49-41.2-41.2v-870.73h1241.55v870.73c0,22.71-18.49,41.2-41.2,41.2Z"/>
  <path d="m1000,544.03h497.17c22.76,0,41.2-18.44,41.2-41.2s-18.44-41.2-41.2-41.2h-497.17c-22.76,0-41.2,18.44-41.2,41.2s18.44,41.2,41.2,41.2Z"/>
  <path d="m546.7,502.83c0,22.76-18.46,41.2-41.2,41.2s-41.2-18.44-41.2-41.2,18.44-41.2,41.2-41.2,41.2,18.44,41.2,41.2Z"/>
  <path d="m711.51,502.83c0,22.76-18.46,41.2-41.2,41.2s-41.2-18.44-41.2-41.2,18.44-41.2,41.2-41.2,41.2,18.44,41.2,41.2Z"/>
  <path d="m876.32,502.83c0,22.76-18.46,41.2-41.2,41.2s-41.2-18.44-41.2-41.2,18.44-41.2,41.2-41.2,41.2,18.44,41.2,41.2Z"/>
  <path d="m1445.04,1189.45c10.9-14.62,10.9-34.67,0-49.28-8.04-10.77-199.65-263.78-445.04-263.78s-437.01,253.01-445.04,263.77c-10.9,14.62-10.9,34.67,0,49.28,8.04,10.77,199.65,263.78,445.04,263.78s437.01-253.01,445.04-263.77Zm-445.04,181.36c-163.28,0-307.1-146.59-358.72-206.05,51.51-59.52,194.94-205.97,358.72-205.97s307.08,146.56,358.72,206.05c-51.51,59.52-194.94,205.97-358.72,205.97Z"/>
  <path d="m505.58,1041.2c22.76,0,41.2-18.44,41.2-41.2v-123.61h123.61c22.76,0,41.2-18.44,41.2-41.2s-18.44-41.2-41.2-41.2h-164.81c-22.76,0-41.2,18.44-41.2,41.2v164.81c0,22.76,18.44,41.2,41.2,41.2Z"/>
  <path d="m670.39,1453.22h-123.61v-123.61c0-22.76-18.44-41.2-41.2-41.2s-41.2,18.44-41.2,41.2v164.81c0,22.76,18.44,41.2,41.2,41.2h164.81c22.76,0,41.2-18.44,41.2-41.2s-18.44-41.2-41.2-41.2Z"/>
  <path d="m1497.17,793.99h-167.55c-22.76,0-41.2,18.44-41.2,41.2s18.44,41.2,41.2,41.2h126.35v123.61c0,22.76,18.44,41.2,41.2,41.2s41.2-18.44,41.2-41.2v-164.81c0-22.76-18.44-41.2-41.2-41.2Z"/>
  <path d="m1497.17,1288.41c-22.76,0-41.2,18.44-41.2,41.2v123.61h-126.35c-22.76,0-41.2,18.44-41.2,41.2s18.44,41.2,41.2,41.2h167.55c22.76,0,41.2-18.44,41.2-41.2v-164.81c0-22.76-18.44-41.2-41.2-41.2Z"/>
  <path d="m1000,1041.2c-68.15,0-123.61,55.45-123.61,123.61s55.45,123.61,123.61,123.61,123.61-55.45,123.61-123.61-55.45-123.61-123.61-123.61Zm0,164.81c-22.71,0-41.2-18.49-41.2-41.2s18.49-41.2,41.2-41.2,41.2,18.49,41.2,41.2-18.49,41.2-41.2,41.2Z"/>
</svg>